<svg id="b771a198-55ea-468a-87ad-4e42b419ecc3" data-name="Layer 1" xmlns="http://www.w3.org/2000/svg" width="535.83" height="406.58" viewBox="0 0 535.83 406.58"><title>computer</title><path d="M904.2-2482.23c.06.11,1.12-.79,1.18-.69s3.83,3.41,3.9,3.53,3.84-2.35,3.89-2.25" transform="translate(-636.81 2790.67)" fill="none" stroke="#333" stroke-linecap="round" stroke-linejoin="round" stroke-width="2"/><path d="M901.62-2486.49c.06.1,1-.68,1-.58.17.28-8.22,10.14-8.06,10.42s5.31-3.27,5.4-3.11.39,5.39.46,5.51,4.36-2.67,4.42-2.56c.16.27-7.43,9.71-7.28,10s16.55-10,16.73-9.66" transform="translate(-636.81 2790.67)" fill="none" stroke="#333" stroke-linecap="round" stroke-linejoin="round" stroke-width="2"/><path d="M808.75-2408.18s2.13-1.3,2.16-1.25c.14.26-6.84,9.38-6.69,9.64.06.1,7.78-4.64,7.85-4.53s-5.7,8.76-5.57,9,4-2.62,4.17-2.4-2.91,7.22-2.81,7.39c.21.36,10.41-6.49,10.62-6.13s-6.76,9.34-6.61,9.59c.25.45,19.94-12.11,20.2-11.66.16.28-8.18,10.11-8,10.4.28.49,22.75-13.79,23-13.3.18.31-9.46,10.81-9.28,11.13.3.51,12.87-8.11,13.16-7.6.17.29-8.65,10.38-8.48,10.67.31.53,19.32-11.85,19.63-11.33.13.24-6.15,9-6,9.24.31.54,17.16-10.62,17.47-10.08.2.35-11.16,11.74-11,12.09.31.55,24.73-15,25-14.46.2.34-10.36,11.31-10.17,11.65.32.54,17.17-10.64,17.48-10.09.18.3-9,10.58-8.85,10.88.32.54,14.74-9.23,15-8.69.18.31-9.08,10.61-8.9,10.91.31.55,24.69-15,25-14.43.21.36-11.68,12-11.47,12.39.32.55,20.15-12.36,20.47-11.81s-14.3,13.45-14,13.88,20.65-12.65,21-12.1c.23.4-13.46,13-13.22,13.4s21.21-13,21.52-12.43c.15.25-6.4,9.15-6.25,9.39.31.54,22.13-13.5,22.45-13s-19.24,16.15-18.93,16.7,22.63-13.78,22.94-13.24c.16.28-8,10-7.83,10.29.3.52,22.68-13.79,23-13.27.19.33-10,11.12-9.82,11.45.29.49,16.17-10,16.46-9.51s-12.83,12.66-12.6,13.05,24.41-14.72,24.68-14.25-15.5,14.11-15.24,14.57,18.29-11.18,18.55-10.71c.09.14-1.38,6.38-1.3,6.53s12.08-7.36,12.24-7.07" transform="translate(-636.81 2790.67)" fill="none" stroke="#333" stroke-linecap="round" stroke-linejoin="round" stroke-width="2"/><path d="M658.06-2778.31c.16.27,15.16-9.13,15.32-8.85s-4.35,8-4.24,8.22,11.44-6.94,11.59-6.69-1.17,6.26-1.09,6.4,6.81-4.28,7-4c.07.11,2.93,3.94,3,4.05.16.28,14-8.48,14.21-8.2s-7.94,10-7.78,10.26,17.74-10.63,17.91-10.34-6.25,9.06-6.11,9.3,14.17-8.57,14.34-8.28c.07.13-.39,5.83-.31,6,.17.3,7.29-4.62,7.46-4.32s-3.39,7.5-3.29,7.68,12-7.35,12.19-7c.06.11,2.61,4.12,2.68,4.23.18.32,11.46-7.05,11.64-6.72s-4.92,8.33-4.79,8.54,12.43-7.62,12.62-7.29-3.51,7.56-3.41,7.74,14-8.51,14.17-8.18-6.8,9.36-6.65,9.61,13.59-8.29,13.78-7.95c.1.17-3,7.3-3,7.47.2.34,14.27-8.69,14.46-8.35.08.14-.55,5.92-.48,6,.2.35,11.82-7.28,12-6.93.11.18-3.57,7.59-3.46,7.77.2.35,13.94-8.52,14.14-8.17s-8.81,10.47-8.64,10.76,13.61-8.32,13.81-8c.07.11,2.3,4.31,2.36,4.41.2.36,8.73-5.51,8.93-5.15s-5.51,8.65-5.38,8.88,15.33-9.33,15.54-9c.1.18-3.23,7.4-3.13,7.58.2.36,11.83-7.31,12-6.95.09.15-1.57,6.48-1.48,6.63.21.36,12.55-7.73,12.76-7.37.06.11,1.71,4.64,1.77,4.75.21.37,13.59-8.33,13.8-8,.12.2-4.3,8-4.18,8.2.21.36,14.89-9.09,15.1-8.73s-10.39,11.33-10.2,11.67,14.63-8.94,14.84-8.57-7.09,9.52-6.94,9.78,21.25-12.76,21.46-12.39c.12.21-4.71,8.22-4.59,8.42.21.38,9.76-6.13,10-5.75.11.19-3.94,7.79-3.82,8,.21.37,16.84-10.22,17-9.85.13.22-5,8.39-4.9,8.61.22.37,10.12-6.35,10.34-6,.07.12-.06,5.64,0,5.76.22.38,12.77-7.88,13-7.5s-6.28,9.08-6.14,9.32c.22.39,19.2-11.6,19.42-11.21.13.22-5.27,8.52-5.14,8.74.22.39,8-5.16,8.26-4.77.07.11,1.84,4.56,1.91,4.67.22.39,15.18-9.28,15.4-8.89s-11.1,11.72-10.9,12.07,14.12-8.68,14.35-8.29c.07.13-.24,5.74-.16,5.87.23.4,11.16-7,11.4-6.58.09.16-2.21,6.83-2.11,7,.23.41,14.2-8.75,14.44-8.34.13.23-5.58,8.7-5.45,8.92.24.42,17-10.39,17.28-10s-10.39,11.32-10.19,11.65,22.83-13.76,23.08-13.32-13.45,13-13.21,13.4,23.72-14.29,24-13.85-14.46,13.55-14.21,14,16.46-10.12,16.73-9.66c.07.14-1,6.19-1,6.32.27.48,17.22-10.57,17.5-10.1s-10.45,11.36-10.25,11.69,13.21-8.27,13.48-7.78c.12.19-4.28,8-4.16,8.17.28.49,15.35-9.51,15.63-9,.11.19-4.08,7.87-4,8.06.28.49,15.4-9.54,15.68-9.05.13.21-4.86,8.3-4.74,8.51.28.49,12.44-7.83,12.72-7.34.18.32-9.79,11-9.6,11.31.28.48,25.33-15.26,25.6-14.78.19.32-9.48,10.83-9.3,11.15s14.12-8.78,14.39-8.31c.11.2-4.06,7.86-4,8.05.26.45,16-9.82,16.23-9.36s-12.65,12.55-12.43,12.94,16.32-10,16.57-9.57c.12.21-4.48,8.1-4.37,8.3.24.41,18-10.93,18.22-10.52.14.24-6.24,9.06-6.11,9.3s10.13-6.31,10.33-6c.08.13-.78,6-.7,6.18s6.75-4.23,6.9-4,1.67,4.66,1.73,4.77,9.37-5.59,9.45-5.46-1.5,6.45-1.41,6.59,4.85-3,4.92-2.84c.17.28-8.29,10.18-8.12,10.46s3.79-2.37,3.87-2.23-5.71,8.76-5.58,9,9.87-5.89,10-5.74-7.08,9.51-6.93,9.77,3.34-2.14,3.44-2-6,8.9-5.82,9.13,5.52-3.41,5.62-3.24-4.64,8.17-4.52,8.38,7.93-4.81,8-4.64-8.22,10.14-8.06,10.43,7.83-4.76,7.93-4.58-6,9-5.92,9.19,4.91-3.08,5-2.89-6.42,9.15-6.28,9.4,10-6,10.11-5.84c.25.42-14.1,13.35-13.86,13.78.11.18,11.14-6.68,11.24-6.49s-6.63,9.27-6.49,9.52,5.43-3.38,5.54-3.2-4.47,8.08-4.35,8.29,8.66-5.24,8.76-5.06c.23.38-12.55,12.5-12.33,12.89.1.17,6.14-3.78,6.24-3.61s-5.58,8.7-5.45,8.93,8.8-5.31,8.9-5.14-6.69,9.3-6.54,9.55,1-.83,1.14-.66-6.31,9.1-6.17,9.34,12.81-7.63,12.91-7.46-8.26,10.16-8.09,10.45,2.71-1.8,2.81-1.62-5.69,8.74-5.55,9,12.05-7.19,12.15-7c.23.39-12.92,12.7-12.69,13.09.1.18,8.75-5.28,8.85-5.11s-7.08,9.52-6.93,9.78,2.76-1.83,2.86-1.65-6.18,9-6,9.26,8.62-5.21,8.72-5-4.69,8.21-4.57,8.42,5.2-3.25,5.31-3.07-6.29,9.09-6.15,9.33,3.56-2.3,3.67-2.12-5.21,8.49-5.09,8.71,8-4.88,8.13-4.7-8.15,10.11-8,10.39,7.3-4.45,7.4-4.27-7.7,9.86-7.55,10.13,9.66-5.82,9.77-5.64-8.34,10.21-8.17,10.49,9-5.47,9.16-5.29-6,8.92-5.85,9.15,3.51-2.26,3.61-2.08-8.06,10.05-7.9,10.34,7-4.29,7.11-4.11c.2.35-10.8,11.55-10.6,11.89s13.52-8,13.62-7.86-6,8.9-5.82,9.13,3.91-2.5,4-2.31-9.9,11.06-9.71,11.38,10.87-6.52,11-6.34c.21.37-12,12.19-11.75,12.56.1.18,7.81-4.76,7.91-4.57s-7.53,9.76-7.38,10,10-6,10.1-5.83-8.51,10.3-8.34,10.59,5.22-3.26,5.33-3.07-9.75,11-9.56,11.29,7.54-4.61,7.65-4.42-1.1,6.22-1,6.36,5.92-3.67,6-3.48c.22.37-11.87,12.13-11.65,12.5.11.2,8.36-5.08,8.47-4.89s-1.72,6.57-1.63,6.72,4.65-2.95,4.77-2.76c.23.4-13.07,12.79-12.84,13.19.12.19,13.35-8,13.47-7.78s-9.64,10.92-9.46,11.24,8.68-5.28,8.79-5.08-10.93,11.62-10.73,12c.11.2,8.79-5.34,8.9-5.14s-7.45,9.72-7.29,10,9.94-6,10-5.81-7.51,9.75-7.36,10,4.14-2.65,4.25-2.45-4.9,8.32-4.77,8.53,6.42-4,6.53-3.77-8.23,10.14-8.06,10.43,11.75-7,11.86-6.85c.23.39-12.92,12.71-12.69,13.1.1.18,4.66-2.93,4.76-2.75" transform="translate(-636.81 2790.67)" fill="none" stroke="#333" stroke-linecap="round" stroke-linejoin="round" stroke-width="2"/><path d="M654.64-2499.56c.12.21,4.4-2.83,4.53-2.62s4.44,3,4.51,3.17,7.79-4.79,7.92-4.57-3.58,7.59-3.47,7.78,14.44-8.63,14.57-8.41-.76,6-.68,6.16,10.46-6.34,10.59-6.11-3.82,7.72-3.71,7.91,10.89-6.58,11-6.36-.52,5.9-.44,6,10.65-6.46,10.78-6.23,3.48,3.62,3.54,3.73,7-4.32,7.09-4.09-3.31,7.44-3.2,7.62,9.81-6,9.94-5.74,6,2.11,6.1,2.25,2.36-1.68,2.5-1.44,4.43,3.06,4.5,3.18,5.54-3.52,5.68-3.28,6.58,1.77,6.67,1.92,7.19-4.48,7.33-4.24-.81,6.07-.74,6.21,8.45-5.21,8.59-5-1.6,6.5-1.52,6.65,16.91-10.1,17.06-9.85-2.62,7.07-2.53,7.23,7.76-4.81,7.9-4.56,2.75,4,2.81,4.15c.15.26,11.28-6.85,11.42-6.59s.41,5.38.48,5.5,9.83-6,10-5.76-1.76,6.59-1.68,6.74,7.57-4.72,7.72-4.46-4.29,8-4.18,8.19,11.11-6.76,11.26-6.5-1.62,6.51-1.53,6.65,12.15-7.36,12.3-7.1,4.41,3.07,4.48,3.19,10.46-6.39,10.61-6.13-2.43,7-2.34,7.13,11.73-7.13,11.88-6.86-1.6,6.5-1.51,6.65,11.58-7,11.73-6.78-.85,6.08-.77,6.22,10.23-6.26,10.38-6-3,7.25-2.86,7.42,11.63-7.07,11.78-6.8c.07.11,1.52,4.75,1.58,4.86.16.27,10.57-6.46,10.73-6.19s-6.42,9.15-6.28,9.4,13.17-8,13.33-7.7-4.18,7.93-4.07,8.12,14.32-8.63,14.47-8.35-5.16,8.46-5,8.68,12.14-7.38,12.3-7.11,5.27,2.56,5.35,2.69,9-5.56,9.15-5.28c.07.12,0,5.59.1,5.71.16.28,4-2.7,4.2-2.42.06.11,3.55,3.57,3.61,3.69.16.28,6.63-4.2,6.79-3.92.06.11,3.18,3.79,3.24,3.9.16.28,10-6.15,10.18-5.87s-2.94,7.24-2.84,7.41,10.39-6.38,10.55-6.1c.07.13,4.57,3,4.64,3.1.16.28,11.5-7,11.66-6.73s-6.08,9-5.95,9.21,8.07-5,8.23-4.75c.06.11,3.81,3.42,3.87,3.53.16.28,13-7.86,13.13-7.58s-3.8,7.72-3.7,7.91,10.25-6.29,10.42-6-.5,5.88-.42,6c.16.29,7.9-4.93,8.06-4.65l2.65,4.24c.16.29,9.21-5.69,9.38-5.41s-3.25,7.41-3.14,7.59,15.24-9.18,15.4-8.9-2.66,7.09-2.56,7.25,10.45-6.4,10.61-6.12c.07.12.51,5.32.58,5.44.16.28,8-5,8.12-4.69.07.11,1.2,4.93,1.27,5,.16.28,6.2-4,6.37-3.68.07.13-.47,5.87-.39,6,.16.29,9.91-6.1,10.08-5.82.06.11,3.39,3.67,3.45,3.78.17.3,14.78-8.92,15-8.63s-5,8.36-4.85,8.57,10.26-6.33,10.43-6-2.91,7.23-2.81,7.4c.19.32,13.29-8.1,13.47-7.78.08.14-.9,6.11-.82,6.25.19.33,13.43-8.2,13.62-7.87s-9.83,11-9.64,11.35,15.34-9.3,15.53-9c.06.11,1.14,5,1.2,5.08.18.3,5.68-3.69,5.86-3.38.06.11,1.21,4.92,1.27,5,.15.26,11.11-6.75,11.26-6.49.06.11,2.21,4.35,2.28,4.45s8.89-5.36,9-5.19-8.65,10.37-8.48,10.67.48-.49.57-.33-4.87,8.3-4.74,8.51,8.2-4.93,8.29-4.78-6.87,9.4-6.72,9.65,4.17-2.59,4.25-2.45-.35,5.8-.27,5.93.95-.75,1-.6-4.38,8-4.27,8.24,9.22-5.54,9.31-5.38-5.42,8.61-5.29,8.83,4.2-2.64,4.29-2.48" transform="translate(-636.81 2790.67)" fill="none" stroke="#333" stroke-linecap="round" stroke-linejoin="round" stroke-width="2"/><path d="M958.58-2447.91c.18.32,9-5.61,9.16-5.29.08.14-1.09,6.22-1,6.36.19.32,18.44-11.08,18.62-10.75.1.17-3.1,7.33-3,7.5.19.33,10.58-6.54,10.77-6.21.08.15-1.78,6.6-1.7,6.75.19.32,12.9-7.88,13.09-7.56s-6,8.94-5.88,9.17,10.35-6.41,10.53-6.08c.09.14-1.45,6.42-1.37,6.56.19.33,13.82-8.42,14-8.08.07.12.37,5.4.44,5.52.2.33,13.71-8.37,13.91-8s-10.78,11.53-10.58,11.88,15.18-9.23,15.39-8.88c.06.11,1.54,4.73,1.6,4.84.21.36,9.89-6.18,10.09-5.82.1.17-3.22,7.39-3.12,7.57.21.36,15.59-9.49,15.8-9.12s-9.31,10.73-9.13,11,17.66-10.69,17.88-10.32c.11.19-3.82,7.73-3.71,7.92.22.38,12.09-7.49,12.31-7.11s-9.26,10.71-9.08,11,19.8-11.95,20-11.57c.13.22-5.11,8.44-5,8.66.22.38,12.55-7.76,12.77-7.38.07.13,0,5.6.09,5.73.22.38,8.61-5.48,8.82-5.1.07.11.93,5.08,1,5.2.21.37,14.31-8.75,14.52-8.38.13.22-5.35,8.56-5.23,8.79s14-8.54,14.18-8.19-10.38,11.32-10.19,11.66,13.5-8.24,13.69-7.91c.06.11,2.52,4.18,2.58,4.29.17.28,8.71-5.42,8.88-5.13.06.12,1.14,5,1.2,5.08.17.3,13.51-8.19,13.68-7.9" transform="translate(-636.81 2790.67)" fill="none" stroke="#333" stroke-linecap="round" stroke-linejoin="round" stroke-width="2"/><path d="M865.59-2438.54c.49.84,29.42-18.09,29.9-17.26.38.66-23.81,18.65-23.43,19.31.49.85,28.46-17.57,29-16.72.33.58-20.61,16.9-20.27,17.48.5.87,32.9-20.16,33.4-19.29.35.61-21.63,17.46-21.28,18.06.52.89,33.67-20.63,34.19-19.74s-27.69,20.76-27.26,21.51c.53.91,37.29-22.73,37.82-21.83s-30.9,22.51-30.42,23.34,36-22,36.57-21.12c.36.63-22.55,18-22.19,18.59.54.92,30.8-19,31.34-18.09.44.77-28.6,21.25-28.16,22,.54.93,38.83-23.65,39.37-22.72s-29.74,21.87-29.27,22.67c.22.4,23-13.8,23.22-13.41s-7.4,9.69-7.24,10c.06.11,2.25-1.46,2.31-1.34s-2.63,7.07-2.53,7.24,4.32-2.66,4.39-2.54c.19.32-9.7,11-9.52,11.27.07.12,9-5.37,9.09-5.25s-5,8.35-4.83,8.56,4.66-2.84,4.73-2.73-1.66,6.54-1.57,6.69,1.29-.89,1.35-.78" transform="translate(-636.81 2790.67)" fill="none" stroke="#333" stroke-linecap="round" stroke-linejoin="round" stroke-width="2"/><path d="M812.47-2405c.12.21,5-3.18,5.15-3s8.6.55,8.71.74,2.67-1.88,2.82-1.62-.29,5.76-.22,5.89,10.26-6.29,10.42-6,5.89,2.19,6,2.33c.23.4,12.85-8,13.08-7.56.13.22-5.38,8.59-5.25,8.81s8.16-5.09,8.32-4.81-1.76,6.59-1.68,6.75,9.83-6,10-5.77,4.85,2.81,4.93,2.94,7.66-4.79,7.81-4.52-5.43,8.62-5.3,8.84,14.71-8.88,14.88-8.59-4.74,8.23-4.62,8.44,13.3-8.08,13.47-7.78c.07.11,2.31,4.3,2.37,4.41.17.3,6.08-3.92,6.25-3.61.09.15-2,6.7-1.88,6.85.17.3,16.52-9.92,16.69-9.63s-4.1,7.88-4,8.08,13.68-8.28,13.84-8c.08.13-.53,5.9-.45,6s10.71-6.55,10.87-6.27-3.47,7.53-3.37,7.71,7.63-4.77,7.79-4.5.5,5.33.57,5.45c.16.28,15.58-9.37,15.75-9.09s-2.26,6.87-2.17,7,10.86-6.64,11-6.36-.38,5.82-.31,6,7.3-4.57,7.45-4.3-3.62,7.61-3.51,7.8,9-5.53,9.16-5.29l2.25,4.47c.11.18,12.86-7.66,13-7.48s-8.14,10.09-8,10.38c.05.09,8.87-5.24,8.92-5.16" transform="translate(-636.81 2790.67)" fill="none" stroke="#333" stroke-linecap="round" stroke-linejoin="round" stroke-width="2"/><path d="M651.15-2779.82c.17.3,8.79-5.47,9-5.17.3.52-18.24,15.61-17.94,16.13.11.17,6.08-3.74,6.18-3.57s-2.59,7-2.49,7.22,5.29-3.24,5.37-3.1c.22.37-12.22,12.32-12,12.7.07.12,9.07-5.41,9.15-5.28s-2.55,7-2.45,7.18,6.27-3.79,6.34-3.66c.22.37-11.93,12.17-11.72,12.54.09.15,4.13-2.59,4.22-2.43s.3,5.43.37,5.55,6.38-3.91,6.49-3.74-6,8.95-5.91,9.18,3.2-2.09,3.31-1.91c.19.35-10.66,11.47-10.46,11.81s12.36-7.4,12.48-7.2-6.6,9.25-6.46,9.5,7.58-4.65,7.7-4.44-10.53,11.4-10.33,11.73,10-6.08,10.17-5.87-8.87,10.49-8.69,10.79,9.46-5.75,9.58-5.53-10.53,11.4-10.34,11.74,6-3.74,6.11-3.52-8.24,10.15-8.07,10.43,13.37-8,13.49-7.79c.24.4-13.07,12.79-12.84,13.19.12.21,5.16-3.26,5.28-3s-3.9,7.77-3.79,8,7.83-4.79,7.95-4.59-6.51,9.2-6.37,9.45,7.21-4.43,7.33-4.23c.24.42-14,13.28-13.72,13.7.11.19,15.6-9.27,15.71-9.07s-9.47,10.82-9.28,11.13,8.61-5.22,8.72-5c.21.37-11.77,12.08-11.56,12.45.11.18,5.72-3.54,5.82-3.36s-6.71,9.31-6.56,9.56,7.73-4.7,7.84-4.52-4.57,8.13-4.45,8.34,1.67-1.2,1.77-1-2.64,7.07-2.54,7.24,4.6-2.89,4.7-2.72-8.94,10.54-8.77,10.84,11.19-6.69,11.29-6.52-4.85,8.29-4.73,8.5,0-.24.13-.07-4,7.85-3.94,8.05,10.93-6.55,11-6.37c.26.45-15.06,13.87-14.8,14.32.1.18,9.09-5.49,9.19-5.31s-5,8.38-4.88,8.59,5.18-3.23,5.28-3.05-6.67,9.3-6.53,9.55,7.25-4.44,7.36-4.25c.2.36-11.24,11.79-11,12.14s10.15-6.12,10.27-5.93-4.82,8.28-4.7,8.49,3.84-2.48,4-2.28-8.39,10.23-8.22,10.52,8.71-5.3,8.83-5.1-4.88,8.31-4.76,8.52,6.33-3.93,6.45-3.72-4.34,8-4.22,8.21,1.19-1,1.31-.76-2.22,6.85-2.13,7,9-5.48,9.14-5.27c.24.42-14,13.32-13.8,13.74.12.21,12.22-7.34,12.35-7.13s-7,9.47-6.86,9.73,5.69-3.56,5.81-3.35-6,8.94-5.9,9.18,7.61-4.67,7.73-4.46-11.13,11.72-10.93,12.08c.12.2,4.19-2.69,4.3-2.49s-4.31,8-4.19,8.2,8.25-5,8.37-4.83-9.49,10.83-9.31,11.15,10.82-6.5,10.92-6.31c.22.37-12.11,12.26-11.89,12.64.1.17,6.61-4,6.7-3.87s-5.22,8.5-5.09,8.72,9-5.45,9.13-5.28c.2.34-10.56,11.42-10.36,11.76.1.18,9.35-5.65,9.46-5.47s-7.47,9.73-7.31,10,6-3.74,6.14-3.55-5.59,8.7-5.46,8.93,5.85-3.65,6-3.45-7.58,9.79-7.42,10.06,5.13-3.24,5.26-3-6.57,9.23-6.43,9.48,11.78-7.08,11.9-6.87c.24.41-13.6,13.07-13.36,13.49.13.21,9.71-5.9,9.83-5.68s-8.33,10.2-8.16,10.49,6-3.71,6.09-3.52-2.71,7.11-2.61,7.28,4.46-2.81,4.56-2.63-4.32,8-4.21,8.2.26-.35.35-.2-3,7.29-2.93,7.46,5-3.08,5.11-2.95-5.43,8.62-5.3,8.84,9.63-5.72,9.7-5.6-5.44,8.61-5.31,8.83,2.09-1.35,2.15-1.24.18,5.51.25,5.63,1.25-.87,1.32-.76-4.94,8.35-4.82,8.56,5.65-3.44,5.73-3.31-1.41,6.39-1.33,6.54,10.86-6.51,11-6.33-6.12,9-6,9.23,16.21-9.64,16.33-9.43-1.68,6.55-1.6,6.7,6.52-4.11,6.67-3.85-2.59,7-2.5,7.21,14.67-8.87,14.84-8.57-4.36,8-4.24,8.23,14.53-8.83,14.72-8.5c.09.16-2.54,7-2.44,7.18.19.33,16.2-9.79,16.39-9.46s-6.87,9.4-6.72,9.65,16.51-9.95,16.69-9.63-10,11.11-9.81,11.44,18.5-11.1,18.67-10.79c.09.15-1.45,6.42-1.36,6.56.17.31,9.46-5.87,9.64-5.56s-4.8,8.26-4.68,8.47,9.82-6.07,10-5.77c.08.13-.14,5.69-.07,5.82.18.31,13.33-8.11,13.51-7.8.09.16-2.42,6.95-2.33,7.11.18.31,10.93-6.72,11.11-6.41.09.16-2.14,6.81-2,7,.18.31,9.73-6,9.91-5.72.07.13-.16,5.7-.09,5.82.18.31,13.34-8.11,13.52-7.8.08.14-1.26,6.31-1.17,6.45.17.31,15.38-9.29,15.56-9s-3.31,7.44-3.2,7.62,8.53-5.34,8.7-5c.07.11,1.8,4.59,1.87,4.7.18.31,9.55-5.93,9.73-5.62s-7.48,9.73-7.32,10,13.55-8.24,13.73-7.93c.08.15-1.76,6.59-1.68,6.74.18.31,17.74-10.65,17.92-10.34s-4.21,7.94-4.09,8.14,8-5.06,8.21-4.75c.08.15-1.31,6.34-1.22,6.48.18.31,15.48-9.35,15.66-9s-8.38,10.22-8.21,10.51,19.25-11.64,19.48-11.24c.33.58-20.86,17-20.53,17.62s29.06-17.58,29.41-17c.44.77-28.36,21.12-27.91,21.89s38.11-23.11,38.59-22.28c.61,1.07-40.46,27.71-39.84,28.78.07.12,10.52-6.23,10.59-6.12.2.35-10.71,11.5-10.51,11.84.07.13,11.07-6.56,11.14-6.43s-5.48,8.64-5.35,8.86,1.16-.88,1.25-.72" transform="translate(-636.81 2790.67)" fill="none" stroke="#333" stroke-linecap="round" stroke-linejoin="round" stroke-width="2"/><path d="M908.57-2485.58a2,2,0,0,0-1.94-1.41c-2.34-.06-4.56-.11-6.73.85s-2.89,3.45-3.63,5.33a9.44,9.44,0,0,0,6.89,12.49,9.72,9.72,0,0,0,6.71-1c2.28-1.34,3-3.82,3.89-6.13C915.37-2479.85,912.57-2484.09,908.57-2485.58Zm-4.05,12.36c-3.39-.09-3.6-3.61-2.88-6.32.68-2.5.91-3,4.56-3.12h0c0,1.46,3.3,2.6,3.47,4.25A5,5,0,0,1,904.52-2473.22Z" transform="translate(-636.81 2790.67)" fill="#333"/><path d="M1167.05-2479.52a2,2,0,0,0-.71-.95c2.42-43.73.88-88,1-131.67.06-24.89.08-49.79-.19-74.68-.25-21.41,1-43.3-.13-64.77.6-8.12.09-16.54-2.63-24.12-2.44-6.87-8.21-8.45-14.4-8.7.12-.64.27-1.27.38-1.91-96.35-2.73-97.4-.53-193.77-.12-98.9.43-197.83.08-296.73,1.67a2.63,2.63,0,0,0-2.65,2.28c-5,1.21-9.35,2.77-12.23,8.11s-2.59,12.74-1.88,18.67c-3.71,34.86-1,71.27-1.05,106.16-.07,37.71-2,76.11.13,113.81-1.2,17.92-1.46,36.44.35,53.85-1.73,16,4.27,35.62,22.77,32.35a1.81,1.81,0,0,0,.35-.13c19.39,2.5,39.74,1.18,59.18,1.25,25.3.11,50.6,0,75.91,0h51s0,.17.05.19a7.36,7.36,0,0,1,2.61,2.86,4.07,4.07,0,0,0,.95,2.32c1.76,5.83.45,14.61.46,20.8a37.52,37.52,0,0,1-1.51,4.37c-1,2.25-3,2.35-4.71,3.53a3,3,0,0,0-.94,3.45,371.16,371.16,0,0,0-37.18,1.38,2,2,0,0,0-.26.08,2.1,2.1,0,0,0-2.79,2c-.19,3.44-1.73,7.52-1.18,11.12-.88.21-1.8.38-2.67.64a2.37,2.37,0,0,0,0,4.54c13.92,4.07,29.45,2.63,43.87,3.18,16.43.61,33,.15,49.43.19,34.86.07,70.22,1.36,105-1.27a4.38,4.38,0,0,0,0-8.75h-.24c0-3.21-1.13-6.66-1.31-9.64a2.09,2.09,0,0,0-2.78-2,1.73,1.73,0,0,0-.27-.08c-12.31-1.2-24.74-1.41-37.17-1.38a3,3,0,0,0-.94-3.45c-1.68-1.18-3.7-1.28-4.7-3.52a34,34,0,0,1-1.51-4.36c0-8.54-2.52-22,4-25.86l0,0c27.25,0-6.2,0,37,0,50.22,0,100.83,1.84,151-.25a3.36,3.36,0,0,0,2.74-1.45c5.94-.67,11.83-2.65,16-7.07C1170-2462.34,1169.23-2473,1167.05-2479.52ZM648.34-2768.66c1.1-6.71,6.51-8.66,12.08-10.43,98.71,1.6,197.45,1.25,296.18,1.68,96,.41,96.72,2.59,192.73-.09a9.49,9.49,0,0,1-.14-1.59c1.54.2,3.08.47,4.63.82,5.44,1.23,6.11,8.17,6.64,12.69a61.27,61.27,0,0,1,.16,9.19c-1.63,23-.19,46.55-.45,69.57-.28,24.89-.25,49.79-.19,74.68.09,36.5-1,73.37.08,110a3.2,3.2,0,0,0-1.19-.34c-25-2.36-50.83-.59-75.92-.59l-132.13,0c-100.36,0-200.72.46-301.07.77.23-11.12-.15-22.42-.89-33.48,2-35.63.18-71.9.14-107.54,0-37,2.93-75.8-1.1-112.77C648.17-2760.26,647.64-2764.46,648.34-2768.66Zm349.32,363.25a35.91,35.91,0,0,1,.78,5.77l0,1.3c-30.9-2-62.27-2.45-93.47-2.07-31.22-.38-62.57.08-93.48,2.07,0-.43,0-.86,0-1.3a37.05,37.05,0,0,1,.77-5.77c20.57,1.94,41.44,1,62.07,1.1,3.06,0,6.12,0,9.21.1,7.13.33,14.29.38,21.45.31s14.32,0,21.45-.31c3.08-.05,6.16-.09,9.21-.1C956.23-2404.4,977.1-2403.47,997.66-2405.41Zm-43.31-5.45c-8.37.07-16.73.2-25.05.16l-3,0c-7.1-.31-14.24-.35-21.36-.28s-14.27,0-21.36.28l-3,0c-8.32,0-16.68-.09-25.05-.16a7.29,7.29,0,0,0,1.65-2.27,14.57,14.57,0,0,0,1.09-3.51,2.13,2.13,0,0,0,2.19-1.74c1-5.63.84-12,.39-18,28.87,1.29,59.06,3.4,87.88,1.33l.21,0c-.37,5.61-.49,11.49.48,16.72a2.12,2.12,0,0,0,2.18,1.74,14.6,14.6,0,0,0,1.1,3.51A7.29,7.29,0,0,0,954.35-2410.86Zm207.3-50.06c-2.37,4.16-8.29,5.76-13.33,6.33a3.55,3.55,0,0,0-2.2-.88c-48.08-2-96.58-.25-144.7-.25H952.21l-145.14,0q-38,0-75.91.09c-21.5.1-44.1-1.35-65.54,1.44-.11,0-.2-.11-.31-.14-8.89-2.25-15.58-3.89-17-14.43-.35-2.64-.72-5.54-1-8.49a3.08,3.08,0,0,0,.85-1.8c.7-5.95,1.12-12.05,1.36-18.21,100.41.3,200.83.76,301.24.77l132.13,0c25.09,0,50.94,1.77,75.92-.59a3.09,3.09,0,0,0,1.35-.46c.39,11.5,1,23,1.9,34.4a2.05,2.05,0,0,0,.18.66A9.32,9.32,0,0,1,1161.65-2460.92Z" transform="translate(-636.81 2790.67)" fill="#333"/></svg>