<svg id="b1fef423-1a63-40e4-a9a4-d99113eb02ac" data-name="レイヤー 1" xmlns="http://www.w3.org/2000/svg" width="100.84" height="111.89" viewBox="0 0 100.84 111.89"><title>phone</title><g id="fe56b33c-1a02-4fa6-a3d1-2cef0c6ab8c1" data-name="Heart In A Screen. Attribute as Freepik from Flaticon.com"><path d="M926.57,151l-.74-4.05c.1-10.4-7.32-21.41-7.32-21.41-2.63-6.56-9.75-3.65-9.75-3.65-4.85-4.67-8.42.87-8.42.87-3.06-2.47-5.38-1.47-6.82-.14V57.1c0-4.42-3.89-8-8.72-8H834.44c-4.81,0-8.71,3.61-8.71,8v94.21c0,4.44,3.9,8,8.71,8h50.35a9.12,9.12,0,0,0,5-1.44,32,32,0,0,1-6.9-3.52c-4.69-2-5.71-3.44-6-4.21a16.28,16.28,0,0,0-2.71-3.6,3.8,3.8,0,0,1-.75-.85,6.85,6.85,0,0,1-2.56-5.7,4.68,4.68,0,0,1,.44-1.6h-39V62.63H887v55.12c-3.27-5.25-7-11.46-7.37-11.35-2.27-2.78-8-4.29-4.59,4.14,6.81,14.08,10.94,21,10.94,21,.09,1,7.67,12.34,5.06,13.79-2-.13-5.72-3.26-5.72-3.26s-4.66-3.58-4.74-3.53c-7-3.76-6,4.46-2.43,6,.19.95,1,.32,4.72,5.59.54,1.37,5.84,3.17,5.84,3.17a30.39,30.39,0,0,0,14.89,4.47c3.92.94,3.06,3.11,3.06,3.11ZM871.3,57.23H848V54.89H871.3Zm7.77,1a2.05,2.05,0,1,1,2.23-2A2.12,2.12,0,0,1,879.07,58.2Zm12.29,66.25.23-.1c.2-.07.42-.13.66-.19a7.49,7.49,0,0,0-.43.74C891.76,124.91,891.59,124.75,891.36,124.45Z" transform="translate(-825.73 -49.07)" fill="#8bbb41" fill-rule="evenodd"/></g><path d="M865.84,149.64a5.33,5.33,0,1,1-5.33-5.33A5.33,5.33,0,0,1,865.84,149.64Z" transform="translate(-825.73 -49.07)" fill="#fff" fill-rule="evenodd"/></svg>