<svg id="b75f2723-f136-4263-91de-250fec90ebe0" data-name="Layer 1" xmlns="http://www.w3.org/2000/svg" width="404.95" height="254.63" viewBox="0 0 404.95 254.63"><title>graph</title><path d="M-153.18-1941.58c0,.06,5-3,5-2.9.12.21-5.56,8.66-5.42,8.9s1.14-.88,1.24-.71-5.41,8.61-5.29,8.82,11.3-6.75,11.4-6.58c.22.39-12,12.24-11.77,12.57s13.23-8,13.38-7.72-9.21,10.66-9,11,7.28-4.58,7.44-4.29-15.15,14-14.93,14.39,12.15-7.31,12.28-7.09-5.59,8.67-5.44,8.92,3.3-2.25,3.45-2-2.53,7-2.42,7.17,8.63-5.33,8.78-5.07c.25.44-16.62,14.76-16.36,15.22.17.28,12.76-7.76,12.93-7.47s-10.74,11.43-10.51,11.84c.14.24,11.24-6.83,11.39-6.58s-7.36,9.72-7.23,10,11.59-7.09,11.76-6.79-12.09,12.34-11.91,12.65,4.69-3,4.83-2.78-8.8,10.43-8.62,10.75,10.12-6.19,10.27-5.93-9.69,10.88-9.48,11.24,10.94-6.68,11.1-6.4-8.69,10.43-8.53,10.69,8.9-5.5,9.06-5.23c.29.52-15.64,14.16-15.36,14.64.17.3,13-7.89,13.14-7.58s-6.82,9.42-6.7,9.64,10-6.17,10.16-5.87-10,11-9.8,11.43,10.5-6.48,10.68-6.16-9.41,10.79-9.23,11.1,10.57-6.53,10.76-6.21c.29.49-18.73,15.88-18.42,16.41.14.25,13.76-8.29,13.91-8s-8.33,10.2-8.17,10.49,6.18-3.91,6.33-3.66-9.07,10.6-8.89,10.91,12-7.32,12.17-7-11,11.72-10.82,12,7.75-4.8,7.9-4.56c.24.43-12.84,12.76-12.65,13.08s10-6.11,10.17-5.87-8,10-7.87,10.31,7.91-4.93,8.07-4.66-3.62,7.61-3.51,7.8,3.91-2.6,4.06-2.34-11.19,11.81-11,12.13,15.25-9.22,15.43-8.91c.29.5-14.77,13.73-14.53,14.16s14.22-8.54,14.37-8.3-9.55,10.93-9.4,11.2,8.4-5.23,8.56-4.94-10.43,11.29-10.21,11.67,8.66-5.32,8.79-5.08-10,11.07-9.8,11.44,10.47-6.45,10.64-6.15-10,11.14-9.81,11.44,10.13-6.14,10.25-5.92-9,10.51-8.8,10.85,11.27-6.84,11.42-6.59c.23.4-15.85,14.33-15.59,14.78.15.26,15.32-9.21,15.47-8.94.25.43-12.06,12.31-11.87,12.63s9.74-6,9.92-5.72-11.42,11.79-11.17,12.22c.15.27,11.82-7.24,12-6.93s-10.61,11.36-10.38,11.76c.15.25,6.07-3.8,6.2-3.57s-9.83,11-9.63,11.33,10.85-6.66,11-6.36-11.61,12-11.41,12.36,13.35-8.06,13.5-7.8-13.37,12.86-13.09,13.34c.16.28,10.46-6.4,10.62-6.14s-11.28,11.8-11.06,12.16,13.14-7.85,13.26-7.65-10.43,11.33-10.23,11.68,7.74-4.81,7.88-4.55-5.78,8.85-5.67,9,8.61-5.25,8.73-5-1,6.17-.9,6.3c.24.41,11.87-7.41,12.11-7,.08.15-2.64,7.06-2.54,7.24.23.39,12.69-7.8,12.89-7.45s-10.71,11.57-10.54,11.86,19.66-12,19.94-11.51c.13.22-5,8.44-4.93,8.62.22.38,16.61-10.29,16.91-9.77.17.3-8.72,10.39-8.54,10.71.31.53,17.53-10.76,17.81-10.28.16.28-6.54,9.27-6.42,9.48.3.5,18.27-11,18.48-10.67s-9.91,11-9.72,11.38c.29.5,15.51-9.45,15.73-9.08s-7.4,9.73-7.27,10c.28.48,17.94-11,18.21-10.51.16.28-7.41,9.71-7.26,10s13.69-8.42,13.91-8-8.27,10.24-8.13,10.47c.22.39,21.37-13,21.64-12.5.11.19-4.64,8.19-4.52,8.39.27.46,15.18-9.45,15.48-8.94.18.32-9.7,10.88-9.49,11.25s18-10.95,18.2-10.5-8.42,10.31-8.28,10.55c.27.46,18.25-11.19,18.54-10.7.11.2-3.23,7.43-3.14,7.58.24.42,15.31-9.44,15.57-9,.16.28-6.65,9.34-6.53,9.55.27.48,9.46-6.06,9.72-5.61.07.12.14,5.53.21,5.65.22.39,16.38-10,16.6-9.59S4.76-1692.59,5-1692.25s21.38-12.92,21.64-12.49c.09.17-4.34,8-4.2,8.2.27.48,8.78-5.65,9-5.22s-6.5,9.23-6.37,9.45c.24.42,18.14-11.06,18.4-10.62s-6.35,9.16-6.23,9.37,20.67-12.52,20.93-12.08-10.45,11.34-10.25,11.69,15-9.21,15.22-8.79c.13.22-3.43,7.56-3.35,7.71.26.45,16.23-10,16.49-9.52.13.23-6.5,9.21-6.36,9.45.28.48,15.45-9.44,15.67-9.05.11.18-3.68,7.62-3.56,7.83.26.45,17.19-10.45,17.42-10.06s-13,12.69-12.75,13.14,17.19-10.56,17.47-10.09-9.24,10.71-9.07,11,22.34-13.46,22.58-13-7,9.45-6.85,9.73,14-8.58,14.19-8.19c.14.24-4.63,8.17-4.51,8.38.23.4,12.08-7.46,12.29-7.1.09.17-3,7.25-2.91,7.45.25.43,16.38-10,16.61-9.59s-7.38,9.72-7.24,10c.23.39,15.57-9.43,15.76-9.1s-9.2,10.63-9,11,15.4-9.31,15.58-9-4.82,8.3-4.71,8.49c.22.39,14.17-8.76,14.42-8.32.11.19-4.08,7.84-4,8.05.24.42,17.22-10.41,17.43-10.06s-9.82,11-9.64,11.34,23.2-13.83,23.39-13.5-13.37,12.84-13.09,13.33c.19.32,21-12.6,21.21-12.25s-9.2,10.73-9,11,17.33-10.42,17.51-10.11-7.61,9.79-7.44,10.07,17.15-10.42,17.37-10-7.17,9.5-7,9.81,12-7.43,12.19-7c.07.13-.34,5.83-.28,5.94.22.36,11.7-7.11,11.85-6.85" transform="translate(162.15 1945.48)" fill="none" stroke="#333" stroke-linecap="round" stroke-linejoin="round" stroke-width="2"/><path d="M-128.89-1727.8c.17.29,13.18-8.12,13.41-7.73s-5.67,8.69-5.52,9,4-2.46,4-2.33" transform="translate(162.15 1945.48)" fill="none" stroke="#333" stroke-linecap="round" stroke-linejoin="round" stroke-width="2"/><path d="M-130.5-1732.53c.05.1,4.61-2.78,4.66-2.69s-5.15,8.51-5,8.69,2.38-1.53,2.45-1.42-3.74,7.68-3.63,7.87,4.09-2.48,4.14-2.39-2,6.77-2,6.91c.2.36,12.16-7.43,12.34-7.12" transform="translate(162.15 1945.48)" fill="none" stroke="#333" stroke-linecap="round" stroke-linejoin="round" stroke-width="2"/><path d="M141.51-1825.09c.13.22,9.7-5.87,9.81-5.67s-3.92,7.82-3.82,8,8.28-4.94,8.35-4.82" transform="translate(162.15 1945.48)" fill="none" stroke="#333" stroke-linecap="round" stroke-linejoin="round" stroke-width="2"/><path d="M207.77-1913.58c.18.3,12.61-7.66,12.77-7.37" transform="translate(162.15 1945.48)" fill="none" stroke="#333" stroke-linecap="round" stroke-linejoin="round" stroke-width="2"/><path d="M204.36-1923.75c.1.17,7.64-4.64,7.73-4.47s4.95,2.75,5,2.88,3.93-2.43,4-2.31" transform="translate(162.15 1945.48)" fill="none" stroke="#333" stroke-linecap="round" stroke-linejoin="round" stroke-width="2"/><path d="M202.77-1928.48c.07.12,5.78-3.5,5.85-3.38.19.33-10.25,11.23-10.05,11.58.07.11,11-6.55,11.07-6.39s-9.06,10.61-8.89,10.9c.06.1,2.05-1.34,2.12-1.22s-6.87,9.36-6.71,9.64,13.07-7.84,13.2-7.62c.36.63-18.25,15.76-18,16.18s9.22-5.7,9.39-5.42c.36.63-18.76,15.79-18.41,16.4.16.27,9-5.53,9.14-5.28s-9.66,10.92-9.47,11.24,7.91-4.85,8-4.64c.32.56-15.92,14.46-15.7,14.84s7.87-4.88,8-4.63c.26.44-18.53,15.86-18.27,16.32.15.25,12-7.34,12.21-7,.32.54-17.09,14.93-16.78,15.46.18.31,10-6.09,10.17-5.87.24.4-15.65,14.27-15.42,14.68s16.21-9.76,16.38-9.46c.45.78-25.66,19.82-25.32,20.4.14.24,17.37-10.34,17.5-10.11" transform="translate(162.15 1945.48)" fill="none" stroke="#333" stroke-linecap="round" stroke-linejoin="round" stroke-width="2"/><path d="M135.21-1827.12c.07.13,6.08-3.68,6.15-3.55" transform="translate(162.15 1945.48)" fill="none" stroke="#333" stroke-linecap="round" stroke-linejoin="round" stroke-width="2"/><path d="M70.83-1790.52c.46.8,39.73-24,40.17-23.2.18.31-10.88,11.53-10.65,11.93.58,1,39.63-24.28,40.24-23.23.15.27-5.81,8.77-5.66,9s8.57-5.23,8.69-5,1.52,4.74,1.59,4.86c.2.35,12.34-7.65,12.57-7.26" transform="translate(162.15 1945.48)" fill="none" stroke="#333" stroke-linecap="round" stroke-linejoin="round" stroke-width="2"/><path d="M52.67-1789.31c.08.15,8.85-5.3,8.93-5.16s-.07,5.62,0,5.76c.48.84,27.83-16.88,28.19-16.27" transform="translate(162.15 1945.48)" fill="none" stroke="#333" stroke-linecap="round" stroke-linejoin="round" stroke-width="2"/><path d="M-43.74-1842.71c.18.31,15.68-9.47,15.86-9.16s-1.55,6.5-1.48,6.63,1.12-.79,1.18-.69-4.23,8-4.13,8.16,5.63-3.42,5.71-3.29,6.59,1.77,6.68,1.92,1.36-1,1.44-.84-3.68,7.67-3.58,7.84,12-7.06,12-6.94c.17.29-7.61,9.74-7.42,10.06.08.13,8.83-5.28,8.91-5.14s1.62,4.7,1.67,4.8,4.75-2.93,4.83-2.78-4.52,8.1-4.4,8.31,6.86-4.17,7-4-3.13,7.35-3,7.52,9.83-5.84,9.9-5.71-3.75,7.65-3.63,7.86,7.87-4.73,8-4.59c.18.3-7.92,10-7.78,10.27s6.76-4.11,6.85-4,.48,5.36.54,5.46,5.45-3.31,5.52-3.19-1.76,6.6-1.68,6.74,7.42-4.5,7.52-4.34.72,5.18.8,5.32,3.08-2,3.15-1.83,4.49,3,4.57,3.14,3.45-2.18,3.53-2-.78,6.07-.71,6.19,5.44-3.33,5.52-3.19-6.28,9.09-6.15,9.32,11.2-6.65,11.28-6.51-6.71,9.34-6.58,9.57,12.67-7.51,12.76-7.36S43-1789.27,43.19-1789s14.24-8.52,14.37-8.29-8.17,10.15-8,10.4,3.11-2,3.18-1.84,1.67,4.65,1.74,4.77.47-.41.53-.3,1.07,5,1.14,5.11,13.21-8,13.36-7.71" transform="translate(162.15 1945.48)" fill="none" stroke="#333" stroke-linecap="round" stroke-linejoin="round" stroke-width="2"/><path d="M-37.36-1857.58c.09.17.77-.66.86-.49s-2.57,7.06-2.49,7.21,8.18-4.92,8.27-4.78" transform="translate(162.15 1945.48)" fill="none" stroke="#333" stroke-linecap="round" stroke-linejoin="round" stroke-width="2"/><path d="M-47.62-1857.3c.07.12,7.58-4.53,7.65-4.42.18.32-9.06,10.62-8.9,10.91s6.6-4,6.68-3.85c.16.29-8.44,10.22-8.26,10.54.08.13,7.7-4.59,7.76-4.48.32.56-15.94,14.42-15.7,14.84.13.22,11.79-7.15,11.94-6.89.27.46-15.64,14.18-15.37,14.64.14.24,7.63-4.76,7.78-4.49.28.48-16.35,14.69-16.12,15.08s11.38-6.85,11.51-6.64-11.7,12-11.48,12.4,6.79-4.27,6.94-4c.25.44-17.63,15.34-17.36,15.8.14.25,12.84-7.75,13-7.5.3.53-17.06,15-16.78,15.46.16.28,10.75-6.58,10.91-6.3.28.48-15.23,14-15,14.42.16.28,5.19-3.38,5.36-3.1s-9.62,10.86-9.42,11.22c.11.19,4.13-2.7,4.26-2.46s-9.9,11-9.71,11.37,6.5-4,6.62-3.82c.25.44-13.1,12.76-12.85,13.19.15.27,7.35-4.62,7.52-4.34.31.54-17.58,15.14-17.24,15.73.18.29,6.59-4.17,6.75-3.9s-13.93,13.19-13.65,13.66c.14.25,9-5.47,9.1-5.26" transform="translate(162.15 1945.48)" fill="none" stroke="#333" stroke-linecap="round" stroke-linejoin="round" stroke-width="2"/></svg>