<svg id="fea7749d-a1dd-496a-9319-5ff1b091c762" data-name="レイヤー 1" xmlns="http://www.w3.org/2000/svg" width="98.51" height="115.79" viewBox="0 0 98.51 115.79"><title>lab</title><path d="M270.52,74.22a6.5,6.5,0,1,0,6.5,6.49A6.5,6.5,0,0,0,270.52,74.22Z" transform="translate(-222.09 -45.17)" fill="#88bb42"/><circle cx="281.52" cy="56.7" r="11.53" transform="translate(-227.53 0.49) rotate(-9.18)" fill="#88bb42"/><path d="M258,55.24a8.32,8.32,0,1,0,8.32,8.32A8.32,8.32,0,0,0,258,55.24Z" transform="translate(-222.09 -45.17)" fill="#88bb42"/><path d="M320.06,159.3a2.29,2.29,0,0,0,.18-.29c.05-.1.09-.2.13-.3s.08-.21.11-.32a1.55,1.55,0,0,0,.06-.31,2.09,2.09,0,0,0,0-.36.59.59,0,0,0,0-.14c0-.05,0-.1,0-.16a2.2,2.2,0,0,0,0-.36c0-.11,0-.21-.07-.32s-.07-.2-.11-.3a3.49,3.49,0,0,0-.15-.34l-.08-.15-28.21-46.17V82.87a3.76,3.76,0,0,0-7.48,0v27.78c0,.06,0,.11,0,.16a2.2,2.2,0,0,0,0,.36c0,.11,0,.21.07.32a1.92,1.92,0,0,0,.11.31c0,.11.1.22.15.33l.08.15,25.61,41.93H232.16l25.62-41.93s0-.1.07-.15.11-.22.16-.33a1.86,1.86,0,0,0,.1-.31c0-.11.06-.21.08-.32s0-.24,0-.36,0-.1,0-.16V82.87a3.76,3.76,0,0,0-7.48,0v26.91L222.55,156c0,.05,0,.1-.07.15s-.11.22-.16.33-.07.21-.1.31-.06.21-.08.32,0,.24,0,.36,0,.11,0,.16,0,.1,0,.14,0,.24,0,.36a3.58,3.58,0,0,0,.17.62,2.92,2.92,0,0,0,.14.31,2.61,2.61,0,0,0,.17.28,2.75,2.75,0,0,0,.19.28l.23.25a2.73,2.73,0,0,0,.25.23l.27.21.33.2c.05,0,.08.06.13.08l.27.11.12,0a3.52,3.52,0,0,0,.61.18l.13,0a5.05,5.05,0,0,0,.67.06h91a5.2,5.2,0,0,0,.68-.06l.12,0a3.38,3.38,0,0,0,.62-.18l.12,0,.26-.12a1.48,1.48,0,0,0,.13-.08,3.62,3.62,0,0,0,.33-.2l.27-.21a2.73,2.73,0,0,0,.25-.23l.24-.26A2.4,2.4,0,0,0,320.06,159.3Z" transform="translate(-222.09 -45.17)" fill="#86b443"/><path d="M279.38,135.22a1.49,1.49,0,0,0-1.48-1.48h-5.29c-.82,0-1-.47-.44-1.05l3.74-3.74a1.47,1.47,0,0,0,0-2.09l-1.38-1.39a1.5,1.5,0,0,0-2.1,0l-3.74,3.74c-.58.58-1.05.38-1.05-.43v-5.29a1.48,1.48,0,0,0-1.48-1.48h-2a1.48,1.48,0,0,0-1.48,1.48v5.29c0,.81-.47,1-1.05.43l-3.74-3.74a1.49,1.49,0,0,0-2.09,0l-1.39,1.39a1.47,1.47,0,0,0,0,2.09l3.74,3.74c.58.58.38,1.05-.43,1.05h-5.29a1.49,1.49,0,0,0-1.49,1.48v2a1.49,1.49,0,0,0,1.49,1.48h5.29c.81,0,1,.48.43,1.05l-3.74,3.74a1.48,1.48,0,0,0,0,2.1l1.39,1.38a1.47,1.47,0,0,0,2.09,0l3.74-3.74c.58-.57,1.05-.38,1.05.44v5.29a1.49,1.49,0,0,0,1.48,1.48h2a1.49,1.49,0,0,0,1.48-1.48v-5.29c0-.82.47-1,1.05-.44l3.74,3.74a1.48,1.48,0,0,0,2.1,0l1.38-1.38a1.48,1.48,0,0,0,0-2.1l-3.74-3.74c-.57-.57-.38-1.05.44-1.05h5.29a1.48,1.48,0,0,0,1.48-1.48Z" transform="translate(-222.09 -45.17)" fill="#86b443"/><path d="M274.52,136.2a9.34,9.34,0,1,1-9.34-9.34A9.35,9.35,0,0,1,274.52,136.2Z" transform="translate(-222.09 -45.17)" fill="#86b443"/><path d="M269.38,136.2a4.2,4.2,0,1,1-4.2-4.19A4.2,4.2,0,0,1,269.38,136.2Z" transform="translate(-222.09 -45.17)" fill="#fff"/><path d="M282.21,113.13a.9.9,0,0,0-.91-.9h-3.22c-.5,0-.62-.29-.26-.64l2.28-2.28a.91.91,0,0,0,0-1.28l-.85-.84a.9.9,0,0,0-1.27,0l-2.28,2.28c-.36.35-.64.23-.64-.27V106a.91.91,0,0,0-.91-.9H273a.9.9,0,0,0-.9.9v3.22c0,.5-.29.62-.64.27l-2.28-2.28a.91.91,0,0,0-1.28,0L267,108a.91.91,0,0,0,0,1.28l2.28,2.28c.35.35.23.64-.27.64h-3.22a.9.9,0,0,0-.9.9v1.19a.91.91,0,0,0,.9.91H269c.5,0,.62.28.27.63L267,118.14a.91.91,0,0,0,0,1.28l.84.84a.89.89,0,0,0,1.28,0l2.28-2.27c.35-.36.64-.24.64.26v3.22a.9.9,0,0,0,.9.9h1.19a.9.9,0,0,0,.91-.9v-3.22c0-.5.28-.62.64-.26l2.28,2.27a.88.88,0,0,0,1.27,0l.85-.84a.91.91,0,0,0,0-1.28l-2.28-2.28c-.36-.35-.24-.63.26-.63h3.22a.91.91,0,0,0,.91-.91Z" transform="translate(-222.09 -45.17)" fill="#86b443"/><path d="M279.25,113.73a5.69,5.69,0,1,1-5.69-5.69A5.69,5.69,0,0,1,279.25,113.73Z" transform="translate(-222.09 -45.17)" fill="#86b443"/><path d="M276.11,113.73a2.56,2.56,0,1,1-2.55-2.56A2.55,2.55,0,0,1,276.11,113.73Z" transform="translate(-222.09 -45.17)" fill="#fff"/></svg>