<svg id="b229b460-ebf5-4fe9-bc0d-f677f7676df2" data-name="Layer 1" xmlns="http://www.w3.org/2000/svg" width="132.22" height="260.55" viewBox="0 0 132.22 260.55"><title>light</title><path d="M324.54-2330.64c.24.41,11-6.91,11.24-6.49.07.1,2.55,4.15,2.61,4.26.16.27,8.59-5.3,8.74-5l2.51,4.32c.13.21,2.7-1.84,2.82-1.62s3.63,3.52,3.7,3.63,4.56-2.89,4.67-2.69-2.66,7.08-2.56,7.25,11.62-6.95,11.72-6.77-6.86,9.4-6.72,9.65,4.34-2.72,4.43-2.55,4.69,2.9,4.76,3,6.5-4,6.59-3.8-2.18,6.82-2.09,7,.33-.4.42-.24l2.37,4.4c.09.15,2.77-1.8,2.86-1.65s-4.69,8.2-4.57,8.41,7.86-4.73,7.95-4.59-3.45,7.53-3.35,7.71,6.63-4,6.71-3.88c.17.3-8.47,10.28-8.3,10.57s5.63-3.44,5.71-3.3,3.18,3.79,3.24,3.9,5.43-3.32,5.51-3.17-8.3,10.18-8.13,10.46,3.72-2.34,3.81-2.2-4.05,7.86-3.94,8.05,4.65-2.89,4.74-2.74-.46,5.87-.39,6,1.47-1.06,1.56-.9-5.25,8.52-5.13,8.74,7.11-4.37,7.23-4.18" transform="translate(-274.05 2363.04)" fill="none" stroke="#333" stroke-linecap="round" stroke-linejoin="round" stroke-width="2"/><path d="M285.47-2265.3c.11.19,11.15-6.7,11.26-6.5s-4.05,7.85-3.94,8.05,10.73-6.4,10.82-6.25,3.27,3.74,3.33,3.85,1.49-1.08,1.59-.92,2.92,3.94,3,4.05,10.37-6.2,10.47-6,4.57,3,4.64,3.09,6.2-3.79,6.3-3.63,2,4.5,2,4.6,3.31-2.13,3.41-2,11.06-.94,11.2-.7.63-.58.73-.42,8.94.35,9.05.55,1.52-1.1,1.62-.93,8.15.82,8.25,1,6.07-3.72,6.16-3.55-1.28,6.32-1.2,6.47,4.92-3.06,5-2.9,10.19-.41,10.32-.18,6.79-4.23,6.92-4-2.45,7-2.36,7.14,3.14-2,3.21-1.86" transform="translate(-274.05 2363.04)" fill="none" stroke="#333" stroke-linecap="round" stroke-linejoin="round" stroke-width="2"/><path d="M286.88-2261.37s2.1-1.29,2.13-1.23,7.44,1.26,7.53,1.42,5.32-3.16,5.36-3.09l2.57,4.29c0,.08,7.74-4.58,7.79-4.5s.5,5.33.57,5.45,5.78-3.45,5.83-3.37,7.51,1.22,7.6,1.38,3.28-2,3.32-1.91,5.64,2.34,5.72,2.47,7.77-4.59,7.81-4.51,3.24,3.76,3.3,3.87,3-1.83,3-1.75,6.89,1.58,7,1.74,3-1.81,3-1.73,6.92,1.57,7,1.72,2.92-1.78,3-1.71,6.11,2.06,6.19,2.2,6.47-3.82,6.51-3.76,3,3.92,3,4,5.46-3.24,5.5-3.18,4.89,2.79,5,2.91,3.25-2.1,3.35-1.93-4.33,8-4.22,8.21.78-.65.87-.5-4.32,8-4.21,8.2,3-1.95,3.12-1.8-.62,6-.55,6.09,7.15-4.35,7.24-4.18S392.8-2236.31,393-2236s2.17-1.49,2.28-1.32-3.59,7.6-3.48,7.79,3.12-2,3.23-1.87-6.49,9.19-6.35,9.44,7.47-4.56,7.58-4.37-7.22,9.58-7.07,9.85,2.46-1.67,2.57-1.48-.33,5.79-.26,5.92.22-.35.32-.18-2.57,7-2.47,7.2.26-.37.35-.21-1.72,6.57-1.64,6.72,3.43-2.19,3.52-2-5.05,8.4-4.93,8.62,3-1.93,3.08-1.78" transform="translate(-274.05 2363.04)" fill="none" stroke="#333" stroke-linecap="round" stroke-linejoin="round" stroke-width="2"/><path d="M300.54-2182.71c0,.06,6.35-3.74,6.38-3.68s7.79,1,7.89,1.22,3.47-2.12,3.52-2,3.07,3.85,3.14,4,3.21-2,3.26-1.88,4.28,3.14,4.35,3.26,3.69-2.22,3.73-2.15c.15.27,12-1.52,12.17-1.25,0,.06,2-1.27,2.08-1.2s3.15,3.81,3.21,3.92,7-4.12,7-4,7.71,1.09,7.81,1.26,2.71-1.68,2.76-1.59,3.79,3.43,3.86,3.54,2.62-1.6,2.66-1.54-3.2,7.39-3.1,7.57c.21.36,19.63-11.82,19.84-11.46" transform="translate(-274.05 2363.04)" fill="none" stroke="#333" stroke-linecap="round" stroke-linejoin="round" stroke-width="2"/><path d="M320.83-2172c.08.14,1.63-1.15,1.72-1s3.05,3.87,3.11,4,4.26-2.67,4.35-2.51,9,.32,9.1.51,3-1.9,3.06-1.76,4,3.33,4,3.44,5.46-3.35,5.55-3.2,10.38-.52,10.51-.29.63-.55.71-.41-1.58,6.49-1.49,6.63c.3.54,23.94-14.53,24.24-14" transform="translate(-274.05 2363.04)" fill="none" stroke="#333" stroke-linecap="round" stroke-linejoin="round" stroke-width="2"/><path d="M348.62-2162.71s6.13-3.58,6.15-3.55,4.24,3.17,4.31,3.28,2.47-1.51,2.51-1.44" transform="translate(-274.05 2363.04)" fill="none" stroke="#333" stroke-linecap="round" stroke-linejoin="round" stroke-width="2"/><path d="M320.61-2158.78c.07.13,1.38-1,1.46-.84s1.21,4.92,1.27,5,8.11-4.87,8.19-4.73,9.76-.14,9.88.07,4.35-2.7,4.43-2.55,1.44,4.79,1.5,4.9,2.71-1.77,2.8-1.61,4.66,2.92,4.73,3,9.82-5.89,9.91-5.72-3.76,7.69-3.65,7.88,10.1-6.13,10.23-5.91-4.51,8.11-4.39,8.31,2.39-1.51,2.44-1.41" transform="translate(-274.05 2363.04)" fill="none" stroke="#333" stroke-linecap="round" stroke-linejoin="round" stroke-width="2"/><path d="M317-2141.63c.08.15,11.17-6.64,11.25-6.49s-1,6.17-.93,6.31,6.36-3.88,6.45-3.73,5.82,2.24,5.9,2.37,5-3,5-2.91,4.78,2.85,4.85,3,9.22-5.52,9.31-5.38-1.14,6.24-1.06,6.38,9-5.55,9.18-5.29-7.31,9.63-7.15,9.9c.06.11,4.81-2.93,4.88-2.82" transform="translate(-274.05 2363.04)" fill="none" stroke="#333" stroke-linecap="round" stroke-linejoin="round" stroke-width="2"/><path d="M322.1-2132.38c.08.15,2.75-1.78,2.83-1.63s6.44,1.86,6.52,2,4.07-2.55,4.15-2.4,2.08,4.43,2.15,4.54,5.22-3.19,5.29-3.06,8.26.76,8.36.94,7.17-4.31,7.25-4.18,1.55,4.73,1.61,4.84,12.4-7.47,12.54-7.24" transform="translate(-274.05 2363.04)" fill="none" stroke="#333" stroke-linecap="round" stroke-linejoin="round" stroke-width="2"/><path d="M319.88-2126.39c0,.07,8.69-5.1,8.73-5s-.19,5.71-.12,5.84,8-4.75,8.07-4.66,5.34,2.51,5.41,2.64,3.17-1.93,3.22-1.85,9,.33,9.08.53,3.61-2.19,3.66-2.11.76,5.17.83,5.29c.19.33,11.27-6.94,11.46-6.61" transform="translate(-274.05 2363.04)" fill="none" stroke="#333" stroke-linecap="round" stroke-linejoin="round" stroke-width="2"/><path d="M318.88-2136.92c0,.05,2.24-1.38,2.28-1.32s7.5,1.22,7.6,1.39,5.06-3,5.1-3,5.15,2.63,5.22,2.76,4.87-2.92,4.92-2.84,7.57,1.17,7.67,1.34,1.93-1.21,2-1.13" transform="translate(-274.05 2363.04)" fill="none" stroke="#333" stroke-linecap="round" stroke-linejoin="round" stroke-width="2"/><path d="M315.36-2147.32c0,.05,8.57-5,8.6-5s6.81,1.63,6.9,1.79,2.84-1.73,2.88-1.66" transform="translate(-274.05 2363.04)" fill="none" stroke="#333" stroke-linecap="round" stroke-linejoin="round" stroke-width="2"/><path d="M319.27-2163.55c.05.08,1.17-.78,1.22-.7s4.87,2.8,4.94,2.92.79-.55.83-.48" transform="translate(-274.05 2363.04)" fill="none" stroke="#333" stroke-linecap="round" stroke-linejoin="round" stroke-width="2"/><path d="M303.4-2325.77c.17.31,10.56-6.51,10.73-6.2.31.53-18.63,15.82-18.33,16.36.59,1,35.71-22,36.29-21s-42.62,28.9-42,30c.16.28,6.13-3.9,6.29-3.63s-12.53,12.5-12.31,12.88c.13.22,11.28-6.79,11.4-6.58.23.4-13,12.77-12.79,13.16.09.17,13.08-7.78,13.18-7.61.25.44-14.49,13.56-14.24,14,.09.14,9.42-5.63,9.5-5.49s-2.51,7-2.42,7.17,4.34-2.67,4.41-2.55c.18.3-8.71,10.42-8.54,10.71.06.11,11-6.46,11-6.36.24.41-13.4,13-13.16,13.38s11-6.78,11.22-6.48-14.71,13.68-14.46,14.12c.06.1,3.64-2.24,3.7-2.14s-4,7.85-3.93,8.05,5-3,5.07-2.93-3.12,7.34-3,7.52,8.76-5.19,8.82-5.09-6.91,9.42-6.76,9.67c.05.09,6.31-3.76,6.36-3.67s-2.57,7-2.47,7.2,4.71-2.83,4.76-2.75c.14.23-6,8.92-5.86,9.16.05.08,3.29-2,3.33-1.93s-2.55,7-2.45,7.19,3.27-2,3.32-1.91.67,5.23.74,5.34,2.36-1.48,2.41-1.39-5.12,8.44-5,8.66,3.36-2.06,3.4-2-4.68,8.2-4.56,8.41,1.11-.75,1.15-.67,1,5.05,1,5.17,3.2-1.95,3.25-1.87-3.77,7.69-3.66,7.88,1.91-1.21,2-1.13-2.26,6.87-2.17,7,7-4.13,7-4-.88,6.1-.8,6.23,4-2.43,4.07-2.34-2.32,6.89-2.23,7.05,2.67-1.63,2.71-1.56-3.39,7.49-3.29,7.67,4.94-3,5-2.89-3.26,7.42-3.16,7.6,4.56-2.82,4.64-2.68-.43,5.85-.35,6,3.22-2,3.28-1.9-3.89,7.77-3.78,8,8.26-4.91,8.32-4.81,2.73,4.06,2.79,4.17,8.55-5.25,8.69-5-10.51,11.39-10.31,11.73c.09.15,6-3.66,6.07-3.51s-3.33,7.46-3.22,7.64,6.13-3.73,6.21-3.59c.17.3-8.91,10.51-8.74,10.82.07.11,3.56-2.2,3.63-2.09s-1.88,6.65-1.79,6.8,9.41-5.71,9.53-5.5-6.93,9.43-6.78,9.69,8.16-5,8.29-4.79c.2.36-11.26,11.8-11.06,12.16.11.17,6.5-4,6.61-3.82s-1.3,6.34-1.22,6.48,3.28-2.11,3.37-2-3.16,7.37-3.06,7.54,2-1.34,2.06-1.19-4.4,8-4.28,8.25,6.88-4.12,6.95-4-4.07,7.86-4,8.06,2.34-1.48,2.39-1.39,1.56,4.73,1.62,4.84,8.25-5.09,8.39-4.84-6.3,9.09-6.16,9.33c.25.44,16.53-10.12,16.78-9.69.15.26-7.08,9.52-6.93,9.78.29.5,15.63-9.7,15.92-9.19.13.23-5.7,8.76-5.57,9s6.59-4.27,6.79-3.92" transform="translate(-274.05 2363.04)" fill="none" stroke="#333" stroke-linecap="round" stroke-linejoin="round" stroke-width="2"/><path d="M349.93-2149.36s1.34-.82,1.36-.79" transform="translate(-274.05 2363.04)" fill="none" stroke="#333" stroke-linecap="round" stroke-linejoin="round" stroke-width="2"/><path d="M333.81-2361.3c0,.07,1.22-.8,1.26-.73l2.25,4.47c.08.15,1.65-1.15,1.74-1s-1.93,6.68-1.84,6.83.15-.25.22-.12" transform="translate(-274.05 2363.04)" fill="none" stroke="#333" stroke-linecap="round" stroke-linejoin="round" stroke-width="2"/><path d="M393.57-2326.31c.08.13,3.84-2.4,3.91-2.26s-1.38,6.38-1.29,6.52,1.45-1,1.54-.89" transform="translate(-274.05 2363.04)" fill="none" stroke="#333" stroke-linecap="round" stroke-linejoin="round" stroke-width="2"/><path d="M275.05-2330.3c0,.07,1.11-.72,1.15-.65s4.92,2.76,5,2.88.57-.49.63-.37,1.82,4.58,1.88,4.69,2.77-1.69,2.82-1.62" transform="translate(-274.05 2363.04)" fill="none" stroke="#333" stroke-linecap="round" stroke-linejoin="round" stroke-width="2"/><path d="M336.78-2205.33c.11.2,5.86-3.64,6-3.44s-.25,5.75-.18,5.87,2.29-1.46,2.35-1.35,1.76,4.61,1.83,4.72,3.31-2,3.36-1.94-6.47,9.18-6.33,9.42c.05.08,7.71-4.56,7.76-4.47" transform="translate(-274.05 2363.04)" fill="none" stroke="#333" stroke-linecap="round" stroke-linejoin="round" stroke-width="2"/><path d="M328.86-2204.75c.05.09,2.22-1.41,2.28-1.32s-.68,6-.6,6.12,3.34-2,3.39-2-3.41,7.5-3.31,7.68,3.32-2,3.37-2" transform="translate(-274.05 2363.04)" fill="none" stroke="#333" stroke-linecap="round" stroke-linejoin="round" stroke-width="2"/><path d="M380.1-2205.33c.09.15,4.21-2.63,4.3-2.48" transform="translate(-274.05 2363.04)" fill="none" stroke="#333" stroke-linecap="round" stroke-linejoin="round" stroke-width="2"/><path d="M372.16-2204.75c.06.1,2.23-1.41,2.29-1.32s-.68,6-.6,6.12,3.34-2,3.39-2-3.42,7.51-3.32,7.69,3.32-2,3.37-1.94" transform="translate(-274.05 2363.04)" fill="none" stroke="#333" stroke-linecap="round" stroke-linejoin="round" stroke-width="2"/><path d="M296.46-2208.32s.9-.55.91-.53,2.58,4.14,2.64,4.25,1.87-1.28,2-1.13,1.51,4.75,1.58,4.86,3.34-2,3.39-2c.14.24-6.2,9-6.06,9.28,0,.08,6-3.58,6.07-3.51s-4.58,8.14-4.46,8.35c0,.06,8.84-5.19,8.88-5.12" transform="translate(-274.05 2363.04)" fill="none" stroke="#333" stroke-linecap="round" stroke-linejoin="round" stroke-width="2"/><path d="M401.71-2266c-1.7-2.21-4.19-2-6.67-2.31a22.65,22.65,0,0,0,1-6.24c.07-1.51.12-3,.15-4.49,0-.11.07-.22.1-.33,0-1.65,0-3.31-.1-5,.07-.43.6-.85.72-1.27a3.12,3.12,0,0,0,.08-.82v-.06c0-.11-.49-.2-.52-.3-.83-10.09-4-19.76-10.9-27.89-3.12-3.69-7.39-6.32-11.14-9.28a45.29,45.29,0,0,0-10.74-6.7,63.15,63.15,0,0,0-23-4.85,52.66,52.66,0,0,0-44.92,24.61c-5.14,8.08-8.77,16.7-8.81,26.43a34.83,34.83,0,0,0,4,16c-.22,0-.43,0-.65,0a7.9,7.9,0,0,0-6.5,2.9,3.36,3.36,0,0,0-.31.43,1.54,1.54,0,0,0-.77,1.84,7.83,7.83,0,0,0,.25,3.58c1.09,3.93,1.34,8,2.2,12a1.55,1.55,0,0,0,.13.38c.19,1.66.41,3.32.69,5,1.45,8.61,3.1,17.23,4.1,25.91.91,7.93,1.22,15.77,2.55,23.66.6,3.62.84,7.65,2.38,10.91a1.64,1.64,0,0,0,0,.44c.79,4.26,4.83,6.41,8.62,8.63.79.84,1.56,1.69,2.36,2.61,2.44,2.82,5.1,5,8.41,5.23-.1,1.24-.15,2.48-.19,3.73a15,15,0,0,0-2.43,3.61,2.57,2.57,0,0,0,1.49,3.69c.36.12.71.34,1.07.42.1,1.94.24,3.6.41,5.66-.18.23-.36.45-.53.68a8.1,8.1,0,0,0-1,1.85c-.41,1-1.13,2.55-.69,3.64a3.29,3.29,0,0,0,2.12,2.31,5.5,5.5,0,0,0,.88.13c.08,1.25.12,2.77.18,3.83a6.43,6.43,0,0,1-.58.71c-.85.83-1.85,2.06-1.79,3.32a3.77,3.77,0,0,0,3.54,3.35v0c.1,1.13.23,2.26.43,3.36a.61.61,0,0,0,.57.48c1.46,3.47,4.05,6.7,6.1,9.8,2.42,3.69,3.68,7.64,6.93,10.81a1.92,1.92,0,0,0,2.58,0,41.17,41.17,0,0,0,8.11,1v.07l.93,0,.95,0v-.07a66.21,66.21,0,0,0,7.64-1,1.43,1.43,0,0,0,2.17,0c3.24-3.17,4.48-7.12,6.91-10.81,2-3.1,4.62-6.33,6.08-9.8a.6.6,0,0,0,.56-.48c.2-1.08.32-1.95.42-3a3.21,3.21,0,0,0,1,0l.11,0h.14a6.05,6.05,0,0,0,1.8-.12,3.33,3.33,0,0,0,2.66-3.21c0-1.66-1.35-2.8-2.52-3.75-.66-.54-1.29-1.14-1.94-1.72.05-.88.08-1.86.13-2.72,2.38.12,5.1-1.54,4.34-4.13a4.12,4.12,0,0,0-1.29-1.78l-.45-.38a1.87,1.87,0,0,0-.61-.61c-.42-.33-.84-.63-1.27-.94.19-2.41.35-4.19.47-6.33.23,0,.47-.07.72-.07,1.86,0,3.6-1,3.6-3.06,0-1.65-1.35-3.06-2.47-4.11-.61-.56-1.16-1.12-1.75-1.62,0-1-.1-2-.17-2.91,3.32-.25,6-2.29,8.42-5.1.79-.93,1.57-1.72,2.36-2.56,3.79-2.22,7.82-4.33,8.61-8.59a1.72,1.72,0,0,0,0-.44,1,1,0,0,1,.07-.18,1.91,1.91,0,0,0,2.3-1.28c1.07-3.68,1.18-7.37,2.17-11.05a138.62,138.62,0,0,0,2.53-13.9c1.38-8.61,2.21-17.19,3.34-25.84.57-4.38.72-8.79,1.17-13.17.37-3.66.63-8,1.58-11.5C403-2261.16,403.32-2263.93,401.71-2266Zm-108.94-19.85c.57-8.65,4.82-16.11,9.45-23.19,2-3.06,5.29-4.76,7.27-7.76,1.88-2.82,5.32-4.59,8.18-6.3,7.22-4.32,16.07-5.63,24.35-5.53,14.12.2,27.56,7.93,37.47,17.61,8.35,8.16,10.79,19.74,10.82,31.2a35.22,35.22,0,0,1-.93,4.59c-.67,2.55-1.83,4.88-1.92,7.54a.78.78,0,0,0,0,.16c0,.17-.05.33-.07.51a1.42,1.42,0,0,0,.18.92c-13.28-.45-26.52-.09-39.73-.15l-4.37-.05v0h-1.88v0l-4.84.05c-13.15.06-26.62-.31-39.84.13a1.55,1.55,0,0,0-.84-1.68,1.73,1.73,0,0,0-.34-.14A39.28,39.28,0,0,1,292.77-2285.85ZM287.7-2263c15.51,1,31.58.47,47.1.58,2.15,0,4.93.05,6.81.08v0h1.88v0c1.88,0,4.2-.07,6.34-.08,15.8-.11,31.75.47,47.52-.63a2.09,2.09,0,0,0,.17.14,25.17,25.17,0,0,0-.91,3.25c-17.38-.33-34.77-.15-52.14-.23-18.86-.1-37.8-.37-56.65.32a.48.48,0,0,0-.24.06c0-.21-.08-.42-.13-.63A4.64,4.64,0,0,1,287.7-2263Zm68.1,148.13a49,49,0,0,0-10.41-.82l-1.9,0v0h-1.88v0c-1.88,0-1.7,0-2.37,0a51.7,51.7,0,0,0-10.69.82c-1.5-3.48-3.1-7-5.48-9.73a168.3,168.3,0,0,0,19.06,0,168.66,168.66,0,0,0,19.08,0C358.83-2121.87,357.3-2118.37,355.8-2114.89Zm6.55-11.21a165,165,0,0,0-20.27-.26,167,167,0,0,0-20.27.31,7.92,7.92,0,0,1-.87-2.06c6.59,1.11,14.11.11,20.6.07,7.15,0,14.52.43,21.7-.13A8.15,8.15,0,0,1,362.35-2126.1Zm3.11-4.9a1.61,1.61,0,0,0-.17.28c-7.19-.78-14.6-.29-21.81-.33s-15.92-1.27-23.26.2a1.3,1.3,0,0,0-.36-.33,7.59,7.59,0,0,0-.94-.74,13.17,13.17,0,0,0,1-2c5.83.15,11.66.2,17.51.23,6,0,12.29.58,18.28-.27.63-.09.63-1.19,0-1.27-5.34-.77-10.89-.32-16.27-.29-6.32,0-12.64.08-19,.24a.13.13,0,0,0,0,0,2,2,0,0,0-.39-2.17c-.05-.71-.1-1.48-.13-2.32,7.05,1,14.91.14,21.83.14,7.39,0,14.91.37,22.33,0-.09,1.83-.18,2.87-.3,4.75h.36c.09,0,.24.59.48.88.55.67,1,1.26,1.38,1.73.11.12.23.22.33.34A4.21,4.21,0,0,0,365.46-2131Zm.53-11.85,0,0c-8-.51-16.14-.09-24.14-.09-7.4,0-15.9-1-23.32.4a.94.94,0,0,0-.4-.2,5.16,5.16,0,0,0-.61,0c.23-.54.41-1.08.66-1.6s.48-.92.71-1.38c6.61.12,13.31.47,19.91,0a.63.63,0,0,0,0-1.25c-6.39-.43-12.87-.11-19.29,0a.38.38,0,0,0,0-.1,72.17,72.17,0,0,1-.38-7.34c7.46.6,15.1.31,22.53.33,7.6,0,15.71.77,23.45.23,0,2.46-.15,4.56-.39,6.88,0,.31-.06-.88-.09,1h.87c.14,0,.27.51.36.77a5.49,5.49,0,0,0,1,1.57A2.15,2.15,0,0,0,366-2142.85Zm1.18-14.57c-7.74-.77-15.94,0-23.62,0-8.08,0-16.41-.34-24.52.33a2.12,2.12,0,0,0-1.12-1,6.84,6.84,0,0,0,.64-1.48,147.14,147.14,0,0,0,16.54-.28.61.61,0,0,0,0-1.22,142.43,142.43,0,0,0-15.74-.29c0-.29,0-.59,0-.84,0,0,0,.1,0,.09a1.24,1.24,0,0,0,0-1.08,14.74,14.74,0,0,0-.39-3.25,1.6,1.6,0,0,0,0-1.06c7.66.29,15.42.31,23.05,0,7.64.33,15.4.32,23.06,0a1,1,0,0,0,.05.84,18.08,18.08,0,0,0-.36,5.21c-4-.23-8-.35-12-.19-1.07.05-.74,1.62.33,1.67,4,.17,7,0,12.37-.19v-.63h.36a4.51,4.51,0,0,0,1.54,2.81C367.36-2157.86,367.27-2157.48,367.17-2157.42ZM377.49-2177c-1.33,1.82-3.23,4.75-5.52,6.59a294.78,294.78,0,0,0-29.89-.33,294.84,294.84,0,0,0-29.89.33c-2.28-1.84-4.19-4.77-5.51-6.59a16.23,16.23,0,0,0-3.65-3.48c12.93.65,26.09.36,39.05.09,13,.27,26.12.56,39.06-.09A16,16,0,0,0,377.49-2177Zm17-66.34q-1.86,10.83-3.55,21.67c-1.12,7.11-.94,14.34-2.06,21.44-.6,3.75-1.11,7.49-1.64,11.25a29.05,29.05,0,0,1-1.08,6,1.67,1.67,0,0,0-.38.06,16.13,16.13,0,0,0-2.74,1.25c-13.55-.78-27.36-.47-41-.19-13.61-.28-27.43-.59-41,.19a16,16,0,0,0-2.73-1.25,1.67,1.67,0,0,0-.38-.06,28.4,28.4,0,0,1-1.08-6c-.54-3.76-1.05-7.5-1.64-11.25-1.11-7.1-.95-14.33-2.06-21.44s-2.31-14.45-3.55-21.67c-.24-1.37-.41-2.78-.56-4.22l0-.09c.48-3.41-.43-6.74-1.19-10.08,0-.19-.08-.38-.12-.59,18.19.67,36.47.43,54.67.34,17.93-.09,35.87.1,53.79-.23C395.38-2253.37,395.31-2248.12,394.51-2243.39Z" transform="translate(-274.05 2363.04)" fill="#333"/><path d="M356.88-2147.4c-1.58,0-3.12.13-4.69.3a.46.46,0,0,0,0,.91c1.57.17,3.11.27,4.69.3A.76.76,0,0,0,356.88-2147.4Z" transform="translate(-274.05 2363.04)" fill="#333"/><path d="M343.93-2358.73a2.91,2.91,0,0,0-5.82,0c-.51,4.06.39,8.26.86,12.3a2.05,2.05,0,0,0,4.1,0C343.54-2350.47,344.43-2354.67,343.93-2358.73Z" transform="translate(-274.05 2363.04)" fill="#333"/><path d="M406.19-2326.2a2.55,2.55,0,0,0-3.12-1.77,11.7,11.7,0,0,0-4.08,2.31,39.26,39.26,0,0,0-3.13,3.32,2.45,2.45,0,0,0,3.46,3.47,55.65,55.65,0,0,1,5.7-4.47A2.6,2.6,0,0,0,406.19-2326.2Z" transform="translate(-274.05 2363.04)" fill="#333"/><path d="M287.12-2326.67c-1-1.4-2.66-3.51-4.46-3.76a2.58,2.58,0,0,0-3.12,3.12c.29,1.7,2,2.65,3.32,3.58a17.07,17.07,0,0,1,1.49,1.18c.62.56.75.28,1,1.15.48,2,3,1.26,3.23-.43A7.21,7.21,0,0,0,287.12-2326.67Z" transform="translate(-274.05 2363.04)" fill="#333"/><path d="M353-2192.07c-.76-1.43-.71-3.65-.79-5.25a19.54,19.54,0,0,0-.57-4.95,3,3,0,0,0-2.17-2.31,1.77,1.77,0,0,0-.85-.62c-3.3-1.1-7.31-.76-10.84-.26a1.25,1.25,0,0,0-.25-.09c-1.75-.2-4.1,1.59-4.6,3.46a16,16,0,0,0-.42,4.69c0,1.6.41,3.73.27,5.54a12.09,12.09,0,0,1-.77,2.49c-.79,1.71,1.14,3.43,2.49,2.06,1.77-1.81,1.21-4.34,1.64-6.68.33-1.8-.63-5.36.11-7.41,3.8.56,8.4,1.17,12.15,0,.48.76.32,2.14.3,3,0,1.15,0,2.28.07,3.42.15,2.63.57,6.73,3.69,7a1.85,1.85,0,0,0,1.77-1.44C354.48-2190.88,353.39-2191.26,353-2192.07Z" transform="translate(-274.05 2363.04)" fill="#333"/><path d="M386.46-2200.74v-5.18a39.33,39.33,0,0,0-5.42.46,1.06,1.06,0,0,0-.25-.09c-1.75-.2-4.11,1.59-4.6,3.46a16,16,0,0,0-.43,4.69c0,1.6.4,3.73.27,5.54a12.09,12.09,0,0,1-.77,2.49c-.79,1.71,1.14,3.43,2.49,2.06,1.77-1.81,1.21-4.34,1.64-6.68.32-1.8-.61-5.36.13-7.41A51.21,51.21,0,0,0,386.46-2200.74Z" transform="translate(-274.05 2363.04)" fill="#333"/><path d="M298.4-2200.74v-5.18a41.87,41.87,0,0,1,5.36.46.92.92,0,0,1,.23-.09c1.75-.2,4.09,1.59,4.58,3.46a16.38,16.38,0,0,1,.43,4.69c0,1.6-.41,3.73-.28,5.54a11.51,11.51,0,0,0,.77,2.49c.79,1.71-1.14,3.43-2.49,2.06-1.77-1.81-1.21-4.34-1.64-6.68-.32-1.8.67-5.36-.07-7.41A50.46,50.46,0,0,1,298.4-2200.74Z" transform="translate(-274.05 2363.04)" fill="#333"/></svg>