<svg id="f1d03f65-6703-442a-8f23-f11fcd20b451" data-name="レイヤー 1" xmlns="http://www.w3.org/2000/svg" width="226.77" height="39.71" viewBox="0 0 226.77 39.71"><title>logo</title><path d="M340.37,442.25A8.5,8.5,0,0,1,336,446l-.11-.21a10.53,10.53,0,0,0,4-4.29h-3.45l-.35.07v-.54l.35.07h4l0-1.24-.09-.59.81,0c.15,0,.22.06.22.15s0,.13-.14.21l0,1.43h2l.35-.07v.54l-.35-.07h-1.94l.1,4.51v.13a.77.77,0,0,1-.23.55.89.89,0,0,1-.56.15H339v-.4H340c.36,0,.52-.15.51-.49Z" transform="translate(-186.2 -430.09)" fill="#fff"/><path d="M346.32,446.52a5,5,0,0,0,1.51-2.28,9.8,9.8,0,0,0,.33-2.92v-1l-.08-.53.89.06a.16.16,0,0,1,.17.15c0,.08,0,.13-.17.23v1a8.08,8.08,0,0,1-.55,3.48,4.65,4.65,0,0,1-1.94,2Zm4.31-6.48-.08-.53.87.06c.1,0,.17.07.17.15s0,.14-.18.23v5.67a5.78,5.78,0,0,0,2.83-3.46l.27.09a6.22,6.22,0,0,1-1.27,2.89,4.4,4.4,0,0,1-2.61,1.59Z" transform="translate(-186.2 -430.09)" fill="#fff"/><path d="M364.43,440.54a7.91,7.91,0,0,1-2.36,4.61,7.43,7.43,0,0,1-4,1.71l-.06-.27a8.13,8.13,0,0,0,3.51-1.92,7.9,7.9,0,0,0,1.93-3.73h-2.74a5.9,5.9,0,0,1-2.58,2.51l-.14-.21a7.51,7.51,0,0,0,2.36-3.49l.09-.5.82.17c.13,0,.19.08.19.16s-.06.15-.22.23c-.13.33-.21.51-.32.73Zm-1.09-1.5a1.69,1.69,0,0,1,.94,1l-.59.27a3.79,3.79,0,0,0-.51-1.19Zm1.46,1.16a3.48,3.48,0,0,0-.58-1.09l.15-.12a1.75,1.75,0,0,1,1,.89Z" transform="translate(-186.2 -430.09)" fill="#fff"/><path d="M375.25,440.27V446H369v-5.68Zm-5.38,5.28h4.54v-4.88h-4.54Z" transform="translate(-186.2 -430.09)" fill="#fff"/><path d="M386.74,443.29l-7.33.26v-.92l7.33.27Z" transform="translate(-186.2 -430.09)" fill="#fff"/><path d="M390.84,443.11a.72.72,0,0,1-1.44,0,.72.72,0,0,1,1.44,0Z" transform="translate(-186.2 -430.09)" fill="#fff"/><path d="M400.6,441.77c-.28,2.8-2.32,4.66-5.48,5l-.06-.29c2.55-.63,4.18-2.17,4.54-4.3h-5.47l-.39.08v-.56l.39.08Zm-.55-2.11v.56l-.38-.08h-4.86l-.39.08v-.56l.39.08h4.86Z" transform="translate(-186.2 -430.09)" fill="#fff"/><path d="M404.08,445.69a8.15,8.15,0,0,0,1.63-2.85l.1-.49.83.3a.19.19,0,0,1,.13.17c0,.09,0,.15-.22.21a6,6,0,0,1-2.32,2.85Zm4.41.46c0,.5-.19.71-.66.71h-1.47v-.4h.89c.31,0,.44-.13.44-.43v-4.51h-2.81l-.38.08V441l.38.08h2.81V440l-.08-.52.89.07a.16.16,0,0,1,.17.14c0,.08-.05.14-.18.23v1.25h2.75l.39-.08v.56l-.39-.08h-2.75Zm1-3.73a6.32,6.32,0,0,1,2.43,3l-.85.44a10.78,10.78,0,0,0-1.75-3.28Zm.69-3.31a1.76,1.76,0,0,1,.94,1l-.62.27a3.47,3.47,0,0,0-.48-1.15Zm1.42,1.1a3.56,3.56,0,0,0-.58-1.1l.15-.12a1.72,1.72,0,0,1,1,.93Z" transform="translate(-186.2 -430.09)" fill="#fff"/><path d="M251.23,459.86a1.31,1.31,0,0,0-.79.18,1.53,1.53,0,0,0-.44.61l-1.77,4.66a2.89,2.89,0,0,0-.2.91,1.28,1.28,0,0,0,.26.84,1.7,1.7,0,0,0,.69.54,4.34,4.34,0,0,0,1,.31,7.08,7.08,0,0,0,1.15.16.41.41,0,0,1,.39.22.92.92,0,0,1,.12.45,1,1,0,0,1-.12.46.41.41,0,0,1-.39.21,18,18,0,0,1-2.17-.15,17.56,17.56,0,0,0-2.33-.16,11.59,11.59,0,0,0-2,.16,13.07,13.07,0,0,1-2,.15.39.39,0,0,1-.33-.19.79.79,0,0,1-.16-.44.86.86,0,0,1,.08-.45.44.44,0,0,1,.37-.26l.59-.08a9,9,0,0,0,1.09-.29,2.56,2.56,0,0,0,.91-.58,5.53,5.53,0,0,0,.81-1,11.72,11.72,0,0,0,.79-1.68l8.92-22.46c.08-.21.29-.31.63-.31a1.17,1.17,0,0,1,.87.31c.65,1.69,1.36,3.49,2.11,5.41s1.52,3.87,2.31,5.86,1.58,4,2.37,5.92,1.54,3.81,2.25,5.55a8.88,8.88,0,0,0,.92,1.77,4.17,4.17,0,0,0,.91.95,2.82,2.82,0,0,0,.93.44l1,.23a.42.42,0,0,1,.33.26,1,1,0,0,1,.1.45.92.92,0,0,1-.1.44.3.3,0,0,1-.29.19,18.87,18.87,0,0,1-2.43-.15,18.94,18.94,0,0,0-2.63-.16,28,28,0,0,0-3.12.16,27.28,27.28,0,0,1-2.8.15.46.46,0,0,1-.41-.21.94.94,0,0,1-.14-.5.73.73,0,0,1,.12-.41.55.55,0,0,1,.39-.22,6.28,6.28,0,0,0,2-.47,1.32,1.32,0,0,0,.63-1.3,3.91,3.91,0,0,0-.06-.64,8.11,8.11,0,0,0-.26-1c-.13-.41-.31-.94-.55-1.58s-.55-1.47-.95-2.47a1.06,1.06,0,0,0-.53-.65,3.14,3.14,0,0,0-1.09-.14Zm6.79-1.54a1.18,1.18,0,0,0,.75-.18c.13-.11.13-.33,0-.65l-3.44-9.23a.31.31,0,0,0-.31-.2.31.31,0,0,0-.32.2l-3.59,9.23c-.13.35-.15.57,0,.67a.8.8,0,0,0,.59.16Z" transform="translate(-186.2 -430.09)" fill="#fff"/><path d="M276.32,455.81c0-.75,0-1.36-.06-1.8a2.42,2.42,0,0,0-.26-1,1,1,0,0,0-.64-.5,6.31,6.31,0,0,0-1.2-.21.23.23,0,0,1-.2-.13.92.92,0,0,1-.08-.27.42.42,0,0,1,.06-.26.21.21,0,0,1,.22-.13l1.91-.16a11.22,11.22,0,0,0,2.09-.39c.24-.07.41-.06.49,0a.79.79,0,0,1,.14.31V466q0,.66,0,1.11a1.61,1.61,0,0,0,.19.74,1.1,1.1,0,0,0,.56.44,3.79,3.79,0,0,0,1.06.24.36.36,0,0,1,.24.14.54.54,0,0,1,.08.28.46.46,0,0,1-.08.25.26.26,0,0,1-.24.12,12.72,12.72,0,0,1-1.42-.09,13.82,13.82,0,0,0-1.58-.1,15.25,15.25,0,0,0-1.66.1,14.93,14.93,0,0,1-1.65.09.24.24,0,0,1-.21-.12.39.39,0,0,1-.08-.25.46.46,0,0,1,.08-.28.36.36,0,0,1,.23-.14,4.38,4.38,0,0,0,1.15-.24,1.18,1.18,0,0,0,.59-.43,1.44,1.44,0,0,0,.21-.69c0-.27,0-.6,0-1Z" transform="translate(-186.2 -430.09)" fill="#fff"/><path d="M285.24,455.81c0-.75,0-1.36-.06-1.8a2.42,2.42,0,0,0-.26-1,1,1,0,0,0-.64-.5,6.31,6.31,0,0,0-1.2-.21.23.23,0,0,1-.2-.13.92.92,0,0,1-.08-.27.48.48,0,0,1,.05-.26.24.24,0,0,1,.23-.13l1.91-.16a11.22,11.22,0,0,0,2.09-.39c.24-.07.41-.06.49,0a.79.79,0,0,1,.14.31V466q0,.66,0,1.11a1.61,1.61,0,0,0,.19.74,1.1,1.1,0,0,0,.56.44,3.79,3.79,0,0,0,1.06.24.36.36,0,0,1,.24.14.54.54,0,0,1,.08.28.46.46,0,0,1-.08.25.26.26,0,0,1-.24.12,12.72,12.72,0,0,1-1.42-.09,13.82,13.82,0,0,0-1.58-.1,15.25,15.25,0,0,0-1.66.1,14.93,14.93,0,0,1-1.65.09.24.24,0,0,1-.21-.12.39.39,0,0,1-.08-.25.46.46,0,0,1,.08-.28.36.36,0,0,1,.23-.14,4.38,4.38,0,0,0,1.15-.24,1.18,1.18,0,0,0,.59-.43,1.44,1.44,0,0,0,.21-.69c0-.27,0-.6,0-1Z" transform="translate(-186.2 -430.09)" fill="#fff"/><path d="M308.37,467.07a.28.28,0,0,1-.13.27q-.69.5-1.32.9a6.54,6.54,0,0,1-1.43.69,10.6,10.6,0,0,1-1.87.42,20.78,20.78,0,0,1-2.57.14,10.84,10.84,0,0,1-3.83-.62,7.35,7.35,0,0,1-2.8-1.78,7.6,7.6,0,0,1-1.72-2.89,11.68,11.68,0,0,1-.6-3.89,10.84,10.84,0,0,1,.7-4,8.05,8.05,0,0,1,4.87-4.73,10.53,10.53,0,0,1,3.7-.62,8.36,8.36,0,0,1,2.41.34,13.82,13.82,0,0,1,2.11.82,3.41,3.41,0,0,0,.92.31c.25,0,.43-.12.56-.47a.23.23,0,0,1,.17-.19.7.7,0,0,1,.29,0,.67.67,0,0,1,.25.08.16.16,0,0,1,.08.17,8,8,0,0,0-.18,2.24c0,.83.11,1.67.2,2.53a.28.28,0,0,1-.13.23.55.55,0,0,1-.29.13.55.55,0,0,1-.31,0,.3.3,0,0,1-.19-.23,5.26,5.26,0,0,0-2-3.51,6.45,6.45,0,0,0-4.06-1.22,4.78,4.78,0,0,0-2.62.69,5.73,5.73,0,0,0-1.79,1.81,8,8,0,0,0-1,2.49,12.11,12.11,0,0,0-.33,2.77,14.9,14.9,0,0,0,.38,3.48,8.46,8.46,0,0,0,1.14,2.69,5.41,5.41,0,0,0,1.82,1.72,5,5,0,0,0,2.5.61,10.65,10.65,0,0,0,1.87-.15,3.84,3.84,0,0,0,1.44-.51,2.57,2.57,0,0,0,.92-1,3.62,3.62,0,0,0,.33-1.65,5.55,5.55,0,0,0-.11-1.23,1.24,1.24,0,0,0-.39-.69,1.73,1.73,0,0,0-.79-.33c-.34-.06-.77-.12-1.29-.17a.26.26,0,0,1-.26-.13.46.46,0,0,1-.08-.26A.61.61,0,0,1,303,462a.25.25,0,0,1,.23-.12c.61,0,1.25,0,1.9.07s1.24.06,1.75.06l.7,0,.69,0,.76,0q.4,0,.93,0a.21.21,0,0,1,.2.12.61.61,0,0,1,.06.28.47.47,0,0,1-.07.25.35.35,0,0,1-.24.14,3.15,3.15,0,0,0-.89.19.93.93,0,0,0-.47.36,1.46,1.46,0,0,0-.17.6c0,.23,0,.52,0,.85Z" transform="translate(-186.2 -430.09)" fill="#fff"/><path d="M315.37,466c0,.44,0,.81,0,1.11a1.28,1.28,0,0,0,.27.74,1.52,1.52,0,0,0,.74.44,6.53,6.53,0,0,0,1.45.24.36.36,0,0,1,.23.14.46.46,0,0,1,.08.28.39.39,0,0,1-.08.25.26.26,0,0,1-.23.12,19.56,19.56,0,0,1-2-.09,16.38,16.38,0,0,0-1.66-.1,15.43,15.43,0,0,0-1.67.1,15.43,15.43,0,0,1-1.67.09.24.24,0,0,1-.21-.12.39.39,0,0,1-.08-.25.46.46,0,0,1,.08-.28.36.36,0,0,1,.23-.14,4.48,4.48,0,0,0,1.15-.24,1.18,1.18,0,0,0,.59-.43,1.44,1.44,0,0,0,.22-.69,9.49,9.49,0,0,0,0-1v-3.84c0-.86,0-1.54-.05-2a3.41,3.41,0,0,0-.25-1.16,1,1,0,0,0-.62-.54,5,5,0,0,0-1.16-.18.2.2,0,0,1-.19-.13.54.54,0,0,1-.07-.27.54.54,0,0,1,.07-.26.22.22,0,0,1,.22-.13c.35,0,.84-.08,1.46-.12a9.45,9.45,0,0,0,1.91-.33,1.05,1.05,0,0,1,.6,0q.24.09.21.45l0,1.69a.06.06,0,0,0,0,.06s0,0,.08,0a5.45,5.45,0,0,1,1.35-1.76,3.29,3.29,0,0,1,2.15-.66,2.12,2.12,0,0,1,1.63.57,1.94,1.94,0,0,1,.52,1.38,1.18,1.18,0,0,1-.34.82,1.26,1.26,0,0,1-1,.36,1,1,0,0,1-.84-.29,1,1,0,0,1-.24-.63,1.08,1.08,0,0,0-.14-.58.73.73,0,0,0-.62-.21,1.4,1.4,0,0,0-.91.33,3.26,3.26,0,0,0-.7.78,4.35,4.35,0,0,0-.45.92,2.66,2.66,0,0,0-.15.74Z" transform="translate(-186.2 -430.09)" fill="#fff"/><path d="M334.31,462.81a8.51,8.51,0,0,1-.44,2.84,5.67,5.67,0,0,1-1.28,2.08,5.37,5.37,0,0,1-2,1.28,7.27,7.27,0,0,1-2.58.43,6.28,6.28,0,0,1-2.28-.41,4.81,4.81,0,0,1-1.82-1.21,5.75,5.75,0,0,1-1.21-2,8.39,8.39,0,0,1-.45-2.89,6.56,6.56,0,0,1,.45-2.46,5.42,5.42,0,0,1,1.25-1.9,5.67,5.67,0,0,1,1.93-1.24,6.67,6.67,0,0,1,2.48-.45,6.8,6.8,0,0,1,2.38.4,5.27,5.27,0,0,1,1.88,1.14,5.19,5.19,0,0,1,1.24,1.86A6.88,6.88,0,0,1,334.31,462.81Zm-2.76.29a13.78,13.78,0,0,0-.13-2,6.25,6.25,0,0,0-.47-1.68,3.12,3.12,0,0,0-.95-1.19,2.61,2.61,0,0,0-1.55-.44,3.07,3.07,0,0,0-1.72.44,3.17,3.17,0,0,0-1,1.2,5.29,5.29,0,0,0-.53,1.7,12.59,12.59,0,0,0-.15,2,13,13,0,0,0,.14,1.84,5.33,5.33,0,0,0,.5,1.71,3.5,3.5,0,0,0,1,1.27,2.62,2.62,0,0,0,1.64.5A2.66,2.66,0,0,0,330,468a3.18,3.18,0,0,0,1-1.23,6,6,0,0,0,.47-1.73A15.51,15.51,0,0,0,331.55,463.1Z" transform="translate(-186.2 -430.09)" fill="#fff"/><path d="M346.34,457.47c.56,1.31,1.11,2.62,1.66,3.93s1.09,2.62,1.66,3.94c0,.12.09.17.17.15a.25.25,0,0,0,.17-.15c.29-.95.55-1.86.77-2.74s.43-1.76.62-2.66a3.17,3.17,0,0,0,.11-.76c0-.41-.11-.66-.32-.78a3.09,3.09,0,0,0-1-.27.34.34,0,0,1-.26-.16.47.47,0,0,1-.08-.27.44.44,0,0,1,.09-.27.3.3,0,0,1,.25-.12,6.87,6.87,0,0,1,1.16.1,5.35,5.35,0,0,0,1.05.11,6.43,6.43,0,0,0,1.12-.11,6.8,6.8,0,0,1,1-.1.22.22,0,0,1,.22.12.5.5,0,0,1,.07.27.54.54,0,0,1-.07.29.2.2,0,0,1-.17.14,2.07,2.07,0,0,0-.88.25,1.9,1.9,0,0,0-.6.53,3.3,3.3,0,0,0-.42.79,10.21,10.21,0,0,0-.33,1q-1.32,4.5-2.82,8.92c0,.1-.14.16-.33.17s-.29,0-.33-.15c-.51-1.38-1-2.76-1.55-4.13s-1.11-2.78-1.76-4.23c0-.09-.09-.14-.16-.14s-.12.05-.16.14c-.31.82-.61,1.59-.89,2.31s-.55,1.41-.81,2.08-.5,1.33-.75,2-.49,1.32-.73,2c0,.11-.15.17-.35.18s-.3-.05-.34-.18q-.81-2.31-1.59-4.59c-.52-1.51-1-3-1.49-4.54a9.48,9.48,0,0,0-.4-1.08,2.75,2.75,0,0,0-.44-.68,1.39,1.39,0,0,0-.55-.39,3.43,3.43,0,0,0-.74-.21.23.23,0,0,1-.18-.16.65.65,0,0,1-.05-.27.59.59,0,0,1,.05-.27.17.17,0,0,1,.18-.12,10.76,10.76,0,0,1,1.36.1,9.72,9.72,0,0,0,1.46.11,10.45,10.45,0,0,0,1.49-.11,11.8,11.8,0,0,1,1.46-.1.26.26,0,0,1,.21.12.62.62,0,0,1,.09.26.41.41,0,0,1-.07.28.32.32,0,0,1-.23.16,2.27,2.27,0,0,0-1.08.34.78.78,0,0,0-.32.66,2.68,2.68,0,0,0,0,.46c0,.16.08.34.14.53.24.9.5,1.78.77,2.64s.56,1.72.86,2.58a.18.18,0,0,0,.18.15.19.19,0,0,0,.21-.13c1-2.77,2-5.39,3.05-7.87a.3.3,0,0,1,.29-.18A.31.31,0,0,1,346.34,457.47Z" transform="translate(-186.2 -430.09)" fill="#fff"/><path d="M358.6,455.44a9.16,9.16,0,0,0-.09-1.39,2.1,2.1,0,0,0-.36-.95,1.57,1.57,0,0,0-.75-.57,4.46,4.46,0,0,0-1.3-.25.28.28,0,0,1-.24-.14.66.66,0,0,1-.07-.3.57.57,0,0,1,.07-.29.28.28,0,0,1,.24-.14c.56,0,1.2,0,1.92.08s1.4.08,2,.08l1,0,1-.06.93-.05c.32,0,.66,0,1,0a.24.24,0,0,1,.22.14.56.56,0,0,1,0,.29.86.86,0,0,1-.09.3.24.24,0,0,1-.21.14,5.17,5.17,0,0,0-1.32.23,1.57,1.57,0,0,0-.76.52,2.05,2.05,0,0,0-.34.94,11.54,11.54,0,0,0-.08,1.47v9.16a11,11,0,0,0,.08,1.41,2.67,2.67,0,0,0,.29.94,1.46,1.46,0,0,0,.58.6,3.84,3.84,0,0,0,.92.36,4.72,4.72,0,0,0,.83.12c.3,0,.62,0,1,0a11,11,0,0,0,1.18-.05,3.78,3.78,0,0,0,.84-.16,5.64,5.64,0,0,0,.91-.39,2.06,2.06,0,0,0,.65-.56,2.82,2.82,0,0,0,.43-.85,7.6,7.6,0,0,0,.28-1.3.23.23,0,0,1,.18-.21,1,1,0,0,1,.34-.06.7.7,0,0,1,.33.08.18.18,0,0,1,.12.21q-.13,1.11-.24,2.07a15.82,15.82,0,0,0-.08,2,.41.41,0,0,1-.1.22c-.07.1-.24.15-.5.15h-9.55c-.69,0-1.34,0-2,.06l-1.86.12a.31.31,0,0,1-.28-.13.5.5,0,0,1-.09-.29.55.55,0,0,1,.09-.3.34.34,0,0,1,.28-.17,12.61,12.61,0,0,0,1.31-.23,1.59,1.59,0,0,0,.76-.37,1.26,1.26,0,0,0,.36-.73,8,8,0,0,0,.09-1.36V455.44Z" transform="translate(-186.2 -430.09)" fill="#fff"/><path d="M382,466.34a3.17,3.17,0,0,0,.18,1.28.65.65,0,0,0,.67.37,1.53,1.53,0,0,0,.47-.06,4.12,4.12,0,0,0,.53-.28.17.17,0,0,1,.17,0,.56.56,0,0,1,.16.15.67.67,0,0,1,.09.21.19.19,0,0,1-.06.19,3,3,0,0,1-2.41,1.24,2.11,2.11,0,0,1-1.31-.41,2.52,2.52,0,0,1-.8-1c0-.09-.09-.09-.16,0a6.4,6.4,0,0,1-1.59,1,5.8,5.8,0,0,1-2.28.39,3.16,3.16,0,0,1-2.31-.8,3,3,0,0,1-.82-2.28,3.2,3.2,0,0,1,1.77-2.91,10.5,10.5,0,0,1,5.13-1s.06,0,.08-.13,0-.29,0-.61V461a6.89,6.89,0,0,0-.1-1.23,3.08,3.08,0,0,0-.36-1,1.83,1.83,0,0,0-.7-.68,2.16,2.16,0,0,0-1.1-.25,3,3,0,0,0-1.58.38,1.12,1.12,0,0,0-.6,1,1,1,0,0,0,.18.56,1.06,1.06,0,0,1,.18.57,1,1,0,0,1-.36.71,1.28,1.28,0,0,1-.9.34,1.23,1.23,0,0,1-1-.38,1.41,1.41,0,0,1-.31-.93,2.36,2.36,0,0,1,.37-1.25,3.35,3.35,0,0,1,1-1,5.45,5.45,0,0,1,1.48-.67,6.34,6.34,0,0,1,1.76-.25,5.12,5.12,0,0,1,3.31,1,3.88,3.88,0,0,1,1.21,3.23Zm-2.47-2.61a2.24,2.24,0,0,0,0-.36s-.07-.06-.14-.06a6.51,6.51,0,0,0-3.19.91,2.16,2.16,0,0,0-1,1.85,2.2,2.2,0,0,0,.39,1.33,1.53,1.53,0,0,0,1.32.54,3.74,3.74,0,0,0,1.27-.24,3.56,3.56,0,0,0,1.2-.68.61.61,0,0,0,.21-.42Z" transform="translate(-186.2 -430.09)" fill="#fff"/><path d="M387.42,455.84c0-.76,0-1.36,0-1.82a2.65,2.65,0,0,0-.2-1,.9.9,0,0,0-.54-.49,6,6,0,0,0-1-.21.21.21,0,0,1-.2-.13.87.87,0,0,1-.08-.26.4.4,0,0,1,.06-.26.23.23,0,0,1,.22-.14c.51,0,1.08-.08,1.72-.15a11.34,11.34,0,0,0,1.94-.4c.24-.07.41-.05.48,0a.71.71,0,0,1,.15.3v7.56s0,.05,0,.05a.1.1,0,0,0,.08-.05,4.71,4.71,0,0,1,1.43-1.37,4.09,4.09,0,0,1,2.3-.61,4,4,0,0,1,2,.49,4.41,4.41,0,0,1,1.46,1.29,5.8,5.8,0,0,1,.9,1.85,7.93,7.93,0,0,1,.3,2.19,7.67,7.67,0,0,1-.54,3,6,6,0,0,1-1.46,2.11,6.13,6.13,0,0,1-2.13,1.23,8,8,0,0,1-2.56.41,17.45,17.45,0,0,1-2-.12,11,11,0,0,1-2.31-.56Zm2.47,10.71a1.12,1.12,0,0,0,.18.47,2.6,2.6,0,0,0,.52.6,3.28,3.28,0,0,0,.79.52,2.23,2.23,0,0,0,1,.22,2.72,2.72,0,0,0,1.58-.43,3.08,3.08,0,0,0,1-1.19,6.09,6.09,0,0,0,.51-1.72,13.89,13.89,0,0,0,0-3.78,5,5,0,0,0-.38-1.4,2.26,2.26,0,0,0-.78-1,2.19,2.19,0,0,0-1.31-.36,3.13,3.13,0,0,0-1.27.26,4.49,4.49,0,0,0-1,.63,2.77,2.77,0,0,0-.65.82,1.72,1.72,0,0,0-.24.79Z" transform="translate(-186.2 -430.09)" fill="#fff"/><path d="M413,462.81a8.26,8.26,0,0,1-.45,2.84,5.54,5.54,0,0,1-1.28,2.08,5.42,5.42,0,0,1-2,1.28,7.31,7.31,0,0,1-2.58.43,6.3,6.3,0,0,1-2.29-.41,4.89,4.89,0,0,1-1.82-1.21,5.75,5.75,0,0,1-1.21-2,8.4,8.4,0,0,1-.44-2.89,6.56,6.56,0,0,1,.44-2.46,5.56,5.56,0,0,1,1.25-1.9,5.71,5.71,0,0,1,1.94-1.24,6.62,6.62,0,0,1,2.47-.45,6.8,6.8,0,0,1,2.38.4,5.11,5.11,0,0,1,3.12,3A6.67,6.67,0,0,1,413,462.81Zm-2.77.29a13.78,13.78,0,0,0-.13-2,5.9,5.9,0,0,0-.47-1.68,3,3,0,0,0-1-1.19,2.59,2.59,0,0,0-1.55-.44,3.05,3.05,0,0,0-1.71.44,3.11,3.11,0,0,0-1,1.2,5.55,5.55,0,0,0-.53,1.7,14,14,0,0,0-.14,2,13,13,0,0,0,.13,1.84,5.6,5.6,0,0,0,.5,1.71,3.6,3.6,0,0,0,1,1.27,2.63,2.63,0,0,0,1.65.5,2.7,2.7,0,0,0,1.66-.48,3.07,3.07,0,0,0,1-1.23,5.44,5.44,0,0,0,.47-1.73A13.8,13.8,0,0,0,410.2,463.1Z" transform="translate(-186.2 -430.09)" fill="#fff"/><polygon points="39.25 39.25 0 39.25 0 0 4.13 0 4.13 35.12 39.25 35.12 39.25 39.25" fill="#fff"/><polygon points="10.25 9.91 15.2 9.91 12.77 5.32 10.25 9.91" fill="#fff"/><path d="M190.33,430.09v17.56h17.55V430.09Zm13.51,14.42L202.48,442h-7.15L194,444.51H191.4l6.38-11.28h2.54l6.47,11.28Z" transform="translate(-186.2 -430.09)" fill="#fff"/><path d="M207.88,447.65v17.56h17.56V447.65Zm15.52,6-2.55.46v-1.27h-8.2V460h8.2v-2.52h-4.29v-1.92h6.84v3.89a2.84,2.84,0,0,1-.59,2.12,3.27,3.27,0,0,1-2.21.55h-7.78a3.29,3.29,0,0,1-2.21-.55,2.89,2.89,0,0,1-.59-2.12v-5.94a2.89,2.89,0,0,1,.59-2.12,3.29,3.29,0,0,1,2.21-.55h7.78a3.44,3.44,0,0,1,2.19.53,2.63,2.63,0,0,1,.61,2Z" transform="translate(-186.2 -430.09)" fill="#fff"/><path d="M196.5,454.16l.26-.22.26-.22.28-.2.29-.21.27-.22.29-.21.3-.21.29-.19.32-.17.31-.15.32-.15.33-.12.31-.1.33-.08.33,0h.34l.28,0,.28.06.27.1.27.1.26.15.23.18.23.2.21.23.24.37.19.38.15.41.1.41,0,.41v.4l0,.42-.08.41-.16.36-.16.37-.21.34-.2.32-.24.32-.24.3-.26.3-.27.28-.29.29-.27.25-.31.26-.3.25-.31.23-.32.22-.32.22-.32.21-.29.16-.3.15-.29.12-.31.1-.3.09-.3.07-.28,0-.3,0h-.49l-.23,0-.24,0-.23,0-.21-.05-.21-.07-.19-.09-.21-.12-.19-.14-.18-.16-.16-.15-.15-.18-.13-.19-.12-.2-.11-.2-.13-.3-.05-.3,0-.3v-.31l0-.29.05-.3.06-.29.07-.29.07-.21.09-.2.1-.2.11-.22.12-.2.11-.21.14-.2.14-.19.15-.2.15-.18.14-.18.17-.19.16-.15.17-.17.16-.16.18-.15Zm6.29-1.46.14-.07,0,.27-.08.25-.1.28-.15.24-.15.25-.17.28-.17.23-.17.26-.19.22-.2.17-.22.18-.2.17-.23.14-.23.18-.24.14-.23.14-.22.14-.24.16-.22.15-.22.16-.2.17-.21.2-.19.19-.17.21,0,.09-.06.06-.05.05,0,.07-.16.18L198,458l-.16.19-.17.17-.2.18-.19.17-.19.15-.21.17-.19.15-.22.14-.23.14-.21.09-.23.12-.23.11-.24.08L195,460l0,0-.05,0h-.09l.3-.09.29-.12.27-.16.24-.19.23-.21.2-.23.2-.24.19-.25.19-.27.19-.25.18-.25.21-.26.2-.24.23-.21.21-.21.26-.16.09-.05.07-.07.09,0,.07-.06.07-.06.06,0,.08-.05.07-.05.24-.14.24-.16.25-.16.23-.17.23-.17.21-.18.22-.19.22-.19.21-.18.21-.21.21-.2.2-.19.18-.2.2-.22.2-.22.19-.2.07-.12.09-.1.06-.11.08-.12Z" transform="translate(-186.2 -430.09)" fill="#fff" fill-rule="evenodd"/></svg>