<svg id="f632d9dc-65ab-4c65-b704-ee2b1d0bc4df" data-name="Layer 1" xmlns="http://www.w3.org/2000/svg" width="131.27" height="246.13" viewBox="0 0 131.27 246.13"><title>phone</title><path d="M423.21-2598c.09.14,7.52-4.53,7.6-4.39s1.22,4.93,1.28,5,6.14-3.75,6.23-3.6,6.15,2,6.23,2.18,4-2.52,4.11-2.37-.27,5.75-.19,5.88,14.16-8.38,14.25-8.23,2.45,4.22,2.51,4.32,1.3-1,1.38-.79,3.28,3.73,3.34,3.84,7.16-4.34,7.25-4.18,1.54,4.73,1.61,4.84,11.75-7,11.84-6.83-.62,6-.55,6.09,7.91-4.78,8-4.62.25,5.47.32,5.59,10-6,10.08-5.82,1.91,4.53,2,4.63,3-1.86,3.07-1.77,2.05,4.45,2.11,4.56,3.1-1.88,3.14-1.81,5.46,2.44,5.53,2.57.6-.42.63-.36c.14.24-6.34,9.11-6.2,9.36,0,.05,8.51-5,8.54-4.94s-3.13,7.35-3,7.53,4.12-2.46,4.15-2.4c.15.26-7.08,9.51-6.93,9.77,0,.08,9.24-5.43,9.28-5.36.2.35-10.81,11.56-10.61,11.91.06.09,2.7-1.69,2.75-1.59s3,3.88,3.08,4,4.13-2.52,4.19-2.42-5,8.38-4.88,8.59,3.74-2.3,3.81-2.19-6,8.92-5.86,9.15,4.6-2.81,4.66-2.69c.16.27-7.59,9.8-7.43,10.07.07.11,4.8-2.94,4.87-2.82s-3.75,7.69-3.65,7.88,4.36-2.67,4.43-2.55-3.53,7.56-3.42,7.75,9.24-5.5,9.31-5.38c.19.34-10.44,11.35-10.25,11.69.07.12,8.7-5.18,8.77-5.06s-4.84,8.29-4.72,8.5,3.31-2.08,3.38-2-2.47,7-2.37,7.15,5.27-3.2,5.34-3.08c.2.35-11.13,11.72-10.93,12.08.07.12,10.45-6.2,10.52-6.08s-5,8.35-4.83,8.57,2.6-1.67,2.67-1.55c.16.27-7.39,9.69-7.24,10,.07.12,1.87-1.24,1.94-1.12s-1.15,6.25-1.07,6.39,6.54-3.94,6.61-3.82c.17.29-8.51,10.3-8.35,10.6.07.12,8.88-5.29,8.95-5.17.16.28-7.94,10-7.78,10.27.07.12,2.2-1.43,2.27-1.31s2.82,4,2.88,4.11.38-.39.45-.27-4.13,7.9-4,8.1.75-.59.82-.47-1.21,6.28-1.13,6.42,7.73-4.61,7.79-4.5c.17.29-8.3,10.19-8.13,10.48.06.11,4.5-2.76,4.57-2.65s-5.63,8.73-5.5,9,5.77-3.48,5.83-3.37-6.35,9.11-6.21,9.36,9.58-5.68,9.65-5.57-6.72,9.31-6.57,9.56.84-.62.9-.52-5.66,8.74-5.53,9,8-4.75,8-4.64-3.43,7.51-3.32,7.69,2.44-1.55,2.5-1.45-2.16,6.81-2.07,7,5-3,5-2.9c.15.26-6.89,9.41-6.74,9.67.06.1.12-.2.18-.1s2.85,4,2.91,4.09,2.86-1.78,2.92-1.69c.14.25-6.51,9.2-6.36,9.45.05.09,3.35-2.06,3.41-2,.14.25-6.67,9.29-6.52,9.54,0,.09,2.7-1.68,2.75-1.59s-1.9,6.67-1.82,6.82,2.6-1.61,2.65-1.53,3.62,3.54,3.68,3.65.36-.32.41-.23-5.13,8.44-5,8.66,1.63-1.07,1.68-1-3,7.28-2.9,7.45,4.13-2.52,4.19-2.42-5,8.35-4.83,8.56,5.11-3.12,5.19-3" transform="translate(-401.39 2604.04)" fill="none" stroke="#333" stroke-linecap="round" stroke-linejoin="round"/><path d="M410.55-2593.79c.11.19,9.68-5.84,9.79-5.65.26.45-15.32,14-15.06,14.46.06.11,3.41-2.11,3.47-2s-3.28,7.43-3.18,7.61,2.19-1.38,2.24-1.29-4.82,8.28-4.7,8.49,10.3-6.08,10.35-6-3.41,7.5-3.3,7.68,2.6-1.62,2.65-1.53c.18.31-9.45,10.81-9.27,11.12,0,.09,3.29-2,3.34-1.92s-4.42,8.05-4.3,8.25,2.58-1.6,2.63-1.51-1.87,6.64-1.78,6.8,5.8-3.46,5.85-3.38c.14.25-6.82,9.37-6.68,9.63,0,.08,10.17-6,10.22-5.9.15.27-7.54,9.76-7.38,10,0,.08,7.62-4.51,7.67-4.43s-5.05,8.4-4.92,8.62.27-.27.32-.19-4.7,8.22-4.58,8.42,8.43-5,8.47-4.89c.14.24-6.38,9.13-6.24,9.38,0,.08,3.14-1.93,3.19-1.85s-3.55,7.58-3.44,7.77,4.66-2.8,4.71-2.72-5,8.38-4.9,8.6,1.74-1.11,1.79-1-5.4,8.59-5.28,8.81,10.69-6.27,10.73-6.19c.15.26-6.94,9.44-6.79,9.7,0,.08,3.07-1.88,3.11-1.8s-1,6.18-.95,6.32,2-1.26,2-1.18-4.64,8.18-4.52,8.39,2.48-1.54,2.53-1.46-1.48,6.43-1.4,6.57,5-3,5-2.89c.2.33-10.3,11.28-10.11,11.61,0,.08,4.74-2.84,4.79-2.77s-3.2,7.39-3.1,7.57,8.18-4.83,8.23-4.75c.13.23-5.77,8.79-5.64,9,.05.08,3.08-1.88,3.13-1.8.13.23-5.77,8.8-5.64,9,0,.08,4.63-2.78,4.67-2.7s-2.25,6.86-2.16,7,3.1-1.89,3.15-1.81c.14.25-7,9.46-6.84,9.72,0,.08,9.15-5.39,9.2-5.31.14.25-6.58,9.23-6.43,9.48,0,.08.54-.42.59-.34l2.56,4.29c.05.08,3.68-2.23,3.73-2.15.18.32-9.59,10.89-9.41,11.21,0,.08,7.48-4.43,7.53-4.35.13.23-5.81,8.82-5.67,9.05,0,.08,7.45-4.41,7.5-4.33.17.3-8.93,10.53-8.76,10.83.05.08,5.09-3.05,5.14-3s-3.34,7.46-3.24,7.64,8-4.74,8.08-4.66c.19.33-10.17,11.2-10,11.53.05.09,3.44-2.09,3.49-2s1.87,4.55,1.93,4.66.27-.27.32-.18-2.55,7-2.45,7.18,2.9-1.78,2.94-1.7-.64,6-.56,6.11.5-.39.54-.32-1.72,6.57-1.64,6.72,1.21-.8,1.25-.72c.15.25-6.61,9.26-6.47,9.51,0,0,5.9-3.48,5.93-3.43s-.53,5.91-.45,6,2.16-1.32,2.19-1.27-1.69,6.55-1.6,6.7,1.93-1.19,2-1.13,3.55,3.57,3.61,3.69,2.59-1.59,2.63-1.52,1.68,4.66,1.74,4.77.25-.25.3-.17,8.13.84,8.23,1,6-3.66,6.11-3.53,4.5,3,4.57,3.14,5-3,5-2.91,7.64,1.14,7.74,1.31,2.83-1.81,2.91-1.68-.78,6-.7,6.17,13-7.68,13.07-7.54-1.17,6.26-1.09,6.4,3.8-2.38,3.88-2.24,11.1-1,11.24-.71,2.57-1.69,2.66-1.54,7.16,1.42,7.25,1.59,3.62-2.29,3.71-2.14,2.19,4.36,2.25,4.47,5.75-3.52,5.83-3.37,3.1,3.84,3.16,3.95c.26.45,18.95-11.54,19.21-11.09" transform="translate(-401.39 2604.04)" fill="none" stroke="#333" stroke-linecap="round" stroke-linejoin="round"/><path d="M449.39-2579.91s3.7-2.19,3.72-2.15,1.34,4.86,1.4,5,7.2-4.43,7.32-4.22,4,3.28,4.11,3.4,6.94-4.29,7.06-4.08.62,5.26.68,5.38,9.53-5.6,9.58-5.53" transform="translate(-401.39 2604.04)" fill="none" stroke="#333" stroke-linecap="round" stroke-linejoin="round"/><path d="M415-2571.8c0,.07,4.78-2.86,4.82-2.78s3.91,3.36,4,3.47,3.67-2.24,3.72-2.14,8.39.68,8.5.86,1.74-1.13,1.79-1,2,4.48,2,4.59,12-7.08,12.09-7,1.68,4.66,1.74,4.77,4.08-2.5,4.14-2.39,3.51,3.59,3.58,3.7,4.8-2.9,4.85-2.8,4.09,3.26,4.16,3.37,9.11-5.38,9.17-5.29,2.17,4.38,2.23,4.48,5.17-3.1,5.22-3,2.92,3.94,3,4.05,7.52-4.46,7.57-4.37,5.19,2.61,5.26,2.74,2.57-1.6,2.62-1.52,7.05,1.49,7.14,1.65,3.57-2.16,3.62-2.08,5.63,2.34,5.7,2.47.42-.31.46-.26c.16.29-8.45,10.27-8.28,10.56,0,.06,8.81-5.18,8.85-5.11s-4.58,8.14-4.47,8.35c0,.06,4.39-2.62,4.42-2.55.15.25-6.81,9.37-6.66,9.62,0,.06,8.56-5,8.6-5,.18.33-10,11.09-9.77,11.42,0,.06,1.26-.81,1.3-.75s4.62,2.94,4.69,3.06,2.33-1.42,2.36-1.36-3.1,7.33-3,7.5,1.68-1,1.71-1-3.87,7.75-3.76,7.94,2.3-1.41,2.34-1.35c.12.22-5.24,8.51-5.11,8.73,0,.05,2.4-1.47,2.44-1.41s-1.32,6.34-1.24,6.48,1.89-1.16,1.92-1.1-1,6.17-.94,6.31,6.7-3.94,6.74-3.89c.16.28-7.82,9.92-7.66,10.2,0,0,6.06-3.57,6.09-3.52s-2.12,6.79-2,6.95.64-.45.68-.39.27,5.45.34,5.57,2.56-1.55,2.59-1.5c.17.29-8.34,10.21-8.17,10.5,0,0,7.74-4.54,7.77-4.49.13.23-5.71,8.76-5.57,9,0,0,2.07-1.27,2.1-1.21s-2.19,6.82-2.1,7,2.08-1.27,2.11-1.21-2.43,7-2.34,7.12,3.84-2.29,3.87-2.24c.13.23-5.74,8.79-5.61,9,0,.05,6.17-3.64,6.2-3.58s-4.32,8-4.2,8.2c0,0,2.06-1.26,2.09-1.21s-2.17,6.82-2.08,7,2.05-1.26,2.08-1.21-2.16,6.81-2.07,7,2-1.25,2.07-1.19-1.77,6.59-1.68,6.74,5.15-3,5.18-3c.13.23-5.67,8.74-5.54,9,0,0,2-1.22,2-1.17s-3.05,7.31-3,7.48,3.31-2,3.34-1.93-3.83,7.74-3.72,7.93c0,0,7.18-4.22,7.21-4.17.14.24-6,8.9-5.82,9.13,0,0,1.87-1.14,1.9-1.09.12.21-4.94,8.34-4.82,8.56,0,0,5.66-3.33,5.69-3.29s-1,6.19-1,6.32.15-.14.18-.09.22,5.48.29,5.6,2.67-1.59,2.69-1.55c.12.21-4.86,8.3-4.74,8.51,0,0,1.49-.91,1.51-.87" transform="translate(-401.39 2604.04)" fill="none" stroke="#333" stroke-linecap="round" stroke-linejoin="round"/><path d="M408.46-2570.14s3.24-1.91,3.26-1.89-1.51,6.46-1.43,6.6.54-.35.56-.32.51,5.32.57,5.44.75-.49.78-.44-3.27,7.42-3.17,7.6,8.78-5.14,8.81-5.09-1.85,6.64-1.77,6.79,1.62-1,1.65-1c.17.29-8.42,10.25-8.25,10.54,0,.06,2.31-1.41,2.34-1.35s-3.38,7.48-3.28,7.67,1.59-1,1.62-.94-.83,6.07-.75,6.21,4.8-2.85,4.83-2.79c.13.23-5.78,8.8-5.64,9,0,.06,9.18-5.38,9.21-5.32.14.25-6.51,9.21-6.37,9.45,0,.06,6.66-3.92,6.69-3.86.14.24-6.1,9-6,9.22,0,.05,2.23-1.37,2.27-1.31s-4.61,8.16-4.5,8.36,7.51-4.41,7.54-4.35c.13.22-5.42,8.61-5.29,8.83,0,.06,2.24-1.37,2.27-1.31s-2.61,7.06-2.52,7.23,3.79-2.26,3.82-2.21c.11.2-4.11,7.89-4,8.08s.89-.58.92-.53c.12.21-4.51,8.11-4.4,8.32,0,0,9.85-5.77,9.89-5.71.13.24-6.09,9-6,9.21,0,.06,2.26-1.38,2.29-1.33s-.2,5.72-.12,5.85,1.21-.78,1.24-.72-3.83,7.73-3.72,7.92,1.7-1.05,1.73-1-.67,6-.59,6.12,4.19-2.5,4.22-2.44c.18.32-9.49,10.84-9.31,11.15,0,.06,3.95-2.36,4-2.3s-2.38,6.93-2.28,7.09,7.38-4.34,7.41-4.28c.13.21-4.94,8.35-4.82,8.56,0,.06,2.29-1.4,2.32-1.34.12.21-4.95,8.35-4.82,8.56,0,.06,3.82-2.29,3.85-2.23s-1.42,6.4-1.33,6.55,2.28-1.4,2.32-1.34c.14.24-6.16,9-6,9.25,0,.06,8.35-4.9,8.39-4.84s-4.83,8.28-4.71,8.49c0,.06,2.31-1.41,2.34-1.35s-.2,5.72-.13,5.85,2.87-1.74,2.91-1.68c.17.3-8.76,10.43-8.59,10.73,0,.06,6.65-3.91,6.68-3.86.12.22-4.93,8.34-4.81,8.55,0,.06,6.58-3.87,6.61-3.81.16.27-7.86,9.94-7.7,10.21,0,.06,4-2.38,4-2.32s-2.07,6.75-2,6.91,6.74-4,6.77-3.91-4.32,8-4.21,8.2,2.64-1.6,2.68-1.54c.13.22,10-.26,10.08-.05s2.67-1.63,2.71-1.56,7.53,1.2,7.63,1.37,2.53-1.56,2.57-1.49,9.55,0,9.67.2.46-.37.5-.3,8.3.74,8.41.93,1.36-.9,1.41-.82,2.86,4,2.93,4.08,6.89-4.08,6.93-4,7.11,1.46,7.2,1.62,3.08-1.89,3.13-1.81,4.88,2.79,5,2.91,2.73-1.68,2.78-1.6,9.13.23,9.25.43,3-1.82,3-1.75,6.38,1.9,6.46,2.05,0-.13.09-.05c.14.25,11.36-1.12,11.5-.87,0,.08,4.22-2.55,4.27-2.46" transform="translate(-401.39 2604.04)" fill="none" stroke="#333" stroke-linecap="round" stroke-linejoin="round"/><path d="M417.71-2566.41s2.56-1.49,2.57-1.48" transform="translate(-401.39 2604.04)" fill="none" stroke="#333" stroke-linecap="round" stroke-linejoin="round"/><path d="M416.39-2565.28s2.69-1.56,2.7-1.55" transform="translate(-401.39 2604.04)" fill="none" stroke="#333" stroke-linecap="round" stroke-linejoin="round"/><path d="M462.73-2566.45s2.53-1.48,2.54-1.47" transform="translate(-401.39 2604.04)" fill="none" stroke="#333" stroke-linecap="round" stroke-linejoin="round"/><path d="M506.36-2565.81s2.64-1.54,2.65-1.53" transform="translate(-401.39 2604.04)" fill="none" stroke="#333" stroke-linecap="round" stroke-linejoin="round"/><path d="M465.44-2386.49s3.51-2.08,3.53-2,2.49,4.19,2.56,4.29,1.47-.9,1.49-.86,1.69,4.65,1.75,4.76,1.39-.84,1.41-.81c.12.2-4.43,8.06-4.31,8.27,0,0,9.53-5.56,9.55-5.52" transform="translate(-401.39 2604.04)" fill="none" stroke="#333" stroke-linecap="round" stroke-linejoin="round"/><path d="M457-2382.67c.05.08,5.6-3.35,5.65-3.26.17.3-8.7,10.4-8.53,10.7,0,0,.8-.52.83-.48s2.63,4.11,2.69,4.22,1-.61,1-.58-.3,5.77-.23,5.9,7.77-4.52,7.78-4.49" transform="translate(-401.39 2604.04)" fill="none" stroke="#333" stroke-linecap="round" stroke-linejoin="round"/><path d="M465.27-2380.51s3.3-1.95,3.32-1.91,1.6,4.7,1.67,4.81.74-.46.75-.44" transform="translate(-401.39 2604.04)" fill="none" stroke="#333" stroke-linecap="round" stroke-linejoin="round"/><path d="M459-2377.86s3.7-2.19,3.73-2.15-.25,5.74-.18,5.87.79-.49.81-.47" transform="translate(-401.39 2604.04)" fill="none" stroke="#333" stroke-linecap="round" stroke-linejoin="round"/><path d="M527.43-2389c0-26.46,1-75.79,1-102.25l-.08-42.26c0-14.39-.4-28.88-1.17-43.27,0-.11-.44-.22-.46-.32.12-6.24-.69-12.32-4.25-17.84a17.46,17.46,0,0,0-6.27-5.68,12.86,12.86,0,0,0-6.07-1.71,1.9,1.9,0,0,0-.85-.18c-14.55-.32-29.14-.09-43.69,0l-22,.09c-3.69,0-7.37.07-11.05.11s-7.62-.13-11.36.73a.93.93,0,0,0-.71.82,23,23,0,0,0-10.34,7.51c-2.27,3-3.23,6.79-3.71,10.41-.13.9-.07,1.85-.17,2.83-.09.2,0,.43,0,.7v1.19c0,1.5-.28,3-.17,4.47l0,78.55c0,14.08,0,51,0,65.1s-.33,28.48.21,42.69c-.46,6.65.44,13.08,5.18,18.49a22.11,22.11,0,0,0,19.62,7,1,1,0,0,0,.81-.64c11.7.35,23.41.32,35.1.46,6.54.07,13.08,0,19.62.07h9.78a34.8,34.8,0,0,0,7.41-.31c6.36.72,14-1.58,18.25-6C527.32-2373.64,528.82-2382,527.43-2389Zm-3.93-187.77c-.69,14-.21,28.13-.18,42.16l.08,42.25c.06,28.52.39,79.89.46,108.4a1.31,1.31,0,0,0,.17.67c-.23,4.44-1.22,8.8-4.08,12.35a16.3,16.3,0,0,1-8.48,5.21,45.71,45.71,0,0,1-5.5,1.28,1.5,1.5,0,0,0-.54-.4c-2.71-1.1-6.1-.78-9-.76l-9.79.05c-6.54,0-13.08,0-19.62.15-13.19.2-26.41.2-39.6.75a1,1,0,0,0-.54.13,20.38,20.38,0,0,1-13.43-6.29c-3.77-4-4.65-9.14-5.14-14.36a1.41,1.41,0,0,0,1-1.36c.52-14.1.12-28.27.1-42.38s-.07-51-.1-65.11l.23-80.9c0-.62.44-1.24.44-1.86v-1.81c0-.31-.43-.63-.41-.94a26.16,26.16,0,0,1,1.84-9.8c1.89-4.13,6.82-8.35,11.91-9.88,6.24,1,13,.36,19.19.37h22c14.91,0,29.85.19,44.75-.19l.26,0a40.33,40.33,0,0,1,5,1.21,13.91,13.91,0,0,1,5.77,4.95c3,4.22,3.88,9.6,4.3,14.83A1.36,1.36,0,0,0,523.5-2576.81Z" transform="translate(-401.39 2604.04)" fill="#333"/><path d="M454.77-2579.69l23,0a2,2,0,0,0,2-2.11c0-.12,0-.23-.05-.35s.05-.24.05-.36a1.92,1.92,0,0,0-2-2c-4.11,0-8.23.1-12.35.1h-1.71c-3,0-6,.1-8.95.11a1.9,1.9,0,0,0-2,2,1.45,1.45,0,0,0,.06.3,1.52,1.52,0,0,0-.06.32A2,2,0,0,0,454.77-2579.69Z" transform="translate(-401.39 2604.04)" fill="#333"/><path d="M520.8-2553.07c0-6.61.45-13.59-.36-20.17a1.2,1.2,0,0,0,0-.5.94.94,0,0,0-1-1c-13.52,0-27-.1-40.57-.08-15.69-.1-31.39-.18-47.06.1-6.2-.06-12.42-.1-18.58.35a.4.4,0,0,0-.32,0l-.23,0a.76.76,0,0,0-.1,1.5c-1,12.55-.62,25.17-.6,37.74q0,20,.07,40c0,13.3.05,49.47.07,62.77,0,13-.28,26.09.29,39.08a1,1,0,0,0,.26.63.57.57,0,0,0,0,.18.73.73,0,0,0,.76.77c17.85,0,35.7.14,53.56.1,8.93,0,17.86,0,26.79-.09l13.38,0c4.07,0,8.35.35,12.36-.26a.59.59,0,0,0,.46-.41.65.65,0,0,0,.5-.67c.35-26.31.28-75.5.23-101.8,0-12.94.1-25.88.07-38.82ZM507.21-2393.5H493.82c-8.92,0-17.8,0-26.74,0-17.53,0-35,.21-52.52.31v0c0-12.65.11-25.28.09-37.88,0-13.3-.08-49.47-.11-62.77l-.09-40c0-12.95.29-26-.74-38.88,5.83.39,11.72.33,17.6.25,16,.23,31.93.09,47.9-.07,13.14,0,26.18-.14,39.32-.24-.66,6.06-.24,12.43-.23,18.5q0,9.72,0,19.43c0,13.35.17,26.69.2,40,.05,26.19,0,75.26.46,101.46C515.13-2393.85,511.1-2393.5,507.21-2393.5Z" transform="translate(-401.39 2604.04)" fill="#333"/><polygon points="19.96 36.86 20.86 36.86 20.86 33.96 19.95 33.82 19.96 36.86" fill="#333"/><polygon points="18.64 37.42 19.54 37.41 19.54 34.96 18.64 34.96 18.64 37.42" fill="#333"/><rect x="17.32" y="35.26" width="0.9" height="2.4" fill="#333"/><polygon points="16 37.42 16.89 37.42 16.89 36.4 16 36.4 16 37.42" fill="#333"/><polygon points="14.67 37.42 15.58 37.42 15.57 37.12 14.67 37.12 14.67 37.42" fill="#333"/><path d="M467.38-2568.91c0-.69-.17-1.35-.79-1.35s-.78.47-.78,1.17v1.11h-1.6v2l4,.09v-2.25h-.69Zm-.38.44h-1.51v-.62a.84.84,0,0,1,.75-.9.83.83,0,0,1,.76.9Z" transform="translate(-401.39 2604.04)" fill="#333"/><polygon points="108.59 34.43 108.67 37.12 114.67 37.11 114.67 34.42 108.59 34.43" fill="#333"/><polygon points="114.33 36.36 114.87 36.36 114.87 35.15 114.34 35.13 114.33 36.36" fill="#333"/><path d="M467.23-2388.79a.57.57,0,0,0-.53.38c-4.38-.73-7.79,3.36-9.69,7.24-2.61,5.32,1,11.06,6.28,12.71a11.16,11.16,0,0,0,13.93-8.15C478.43-2382.17,472.83-2388.88,467.23-2388.79Zm-1.47,19.14c-12.55.51-8.49-19.09,1.33-17.88,4.81,1.17,8.2,4.46,8.7,9.56C476.33-2372.36,470.22-2369.83,465.76-2369.65Z" transform="translate(-401.39 2604.04)" fill="#333"/><path d="M471.23-2376.39a27.4,27.4,0,0,0-.15-3c-.17-1,0-3.07-1.58-3.1-.94,0-1.88.12-2.83.09a4.59,4.59,0,0,0-1.35.13s-.07-.05-.11-.05c-1.08-.07-2.19,0-2.75,1a3.58,3.58,0,0,0-.1,2.05,30.28,30.28,0,0,1,0,3.16,2,2,0,0,0,1.13,2.07,12.65,12.65,0,0,0,4.87.14c.94.07,2.32.14,2.7-.74A3.69,3.69,0,0,0,471.23-2376.39Zm-2.65,1.67a.32.32,0,0,0-.14-.08c-1.05-.12-4.63.55-5-.72a13.07,13.07,0,0,1-.07-3.19c0-.51-.09-1-.13-1.52-.09-.87.5-1.14,1.12-1.24a.35.35,0,0,0,.46.12c1.1-.53,2.27-.11,3.42-.19.54,0,1.48-.38,1.75.48.13.41.08,1,.17,1.44a26.17,26.17,0,0,1,.2,3.54C470.44-2374.76,469.56-2374.67,468.58-2374.72Z" transform="translate(-401.39 2604.04)" fill="#333"/></svg>